<?xml version="1.0" encoding="UTF-8"?>
<!DOCTYPE svg PUBLIC "-//W3C//DTD SVG 1.1//EN" "http://www.w3.org/Graphics/SVG/1.1/DTD/svg11.dtd">
<!-- Creator: CorelDRAW 2018 (64 Bit Versão de avaliação) -->
<svg xmlns="http://www.w3.org/2000/svg" xml:space="preserve" width="100mm" height="100mm" version="1.1" style="shape-rendering:geometricPrecision; text-rendering:geometricPrecision; image-rendering:optimizeQuality; fill-rule:evenodd; clip-rule:evenodd"
viewBox="0 0 10000 10000"
 xmlns:xlink="http://www.w3.org/1999/xlink">
 <defs>
  <style type="text/css">
   <![CDATA[
    .fil0 {fill:black}
   ]]>
  </style>
 </defs>
 <g id="Camada_x0020_1">
  <metadata id="CorelCorpID_0Corel-Layer"/>
  <g id="_1626139137216">
   <g>
    <path class="fil0" d="M4920.13 9146.42c0,0 -6795.61,-7830.39 -151.07,-9064.12l151.07 9064.12zm0 0c0,0 6621.85,-8233.24 -151.07,-9064.12l151.07 9064.12zm-43.37 -7532.19c723.08,0 1309.26,586.18 1309.26,1309.26 0,723.08 -586.18,1309.26 -1309.26,1309.26 -11.35,0 -22.66,-0.15 -33.95,-0.44 -707.38,-18.01 -1275.31,-597.09 -1275.31,-1308.82 0,-696.06 543.22,-1265.16 1228.83,-1306.73 26.61,-1.61 53.41,-2.53 80.43,-2.53z"/>
   </g>
   <path class="fil0" d="M5080.25 7276.96c1793.8,0 3046.56,516.36 3046.56,1185.48 0,669.12 -1252.76,1237.61 -3046.56,1237.61 -1793.8,0 -3247.97,-542.42 -3247.97,-1211.55 0,-669.12 1454.17,-1211.54 3247.97,-1211.54zm78.98 358.49c1638.94,0 2665.44,370.26 2665.44,826.99 0,456.73 -1026.5,826.99 -2665.44,826.99 -1638.94,0 -2967.56,-370.26 -2967.56,-826.99 0,-456.73 1328.62,-826.99 2967.56,-826.99z"/>
  </g>
 </g>
</svg>
