<?xml version="1.0" encoding="UTF-8"?>
<!DOCTYPE svg PUBLIC "-//W3C//DTD SVG 1.1//EN" "http://www.w3.org/Graphics/SVG/1.1/DTD/svg11.dtd">
<!-- Creator: CorelDRAW 2018 (64 Bit Versão de avaliação) -->
<svg xmlns="http://www.w3.org/2000/svg" xml:space="preserve" width="95mm" height="80mm" version="1.1" style="shape-rendering:geometricPrecision; text-rendering:geometricPrecision; image-rendering:optimizeQuality; fill-rule:evenodd; clip-rule:evenodd"
viewBox="0 0 9500 8000"
 xmlns:xlink="http://www.w3.org/1999/xlink">
 <defs>
  <style type="text/css">
   <![CDATA[
    .fil0 {fill:#363435}
    .fil1 {fill:#383536}
   ]]>
  </style>
 </defs>
 <g id="Camada_x0020_1">
  <metadata id="CorelCorpID_0Corel-Layer"/>
  <g id="_2467221263920">
   <path class="fil0" d="M6611.7 1600.12c9.24,6.19 10.11,9.51 17.08,18.27 6.51,8.19 11.68,12.79 19.36,20.4 12.73,12.62 29.35,22.49 34.26,40.88 -53.14,-25.5 -70.7,18.32 -70.7,-79.55zm163.51 -83.96c13.81,-20.64 12.78,-17.67 44.19,-17.67 12.35,0 20.64,1.53 27.74,3.18 8.44,1.98 6.69,1.32 13.64,4.03 1.29,0.51 5.01,2.28 6.06,2.79l5.58 3.25c-37.9,0 -65.17,4.42 -97.21,4.42zm-123.74 -30.93c7.75,-11.59 2.23,-9.14 17.68,-13.26 -4.53,16.94 -0.36,11.45 -17.68,13.26zm-88.38 -26.52c2.47,-29.66 31.49,-33.45 50.81,-19.87 12.52,8.78 7.7,2.89 11.05,15.46 -57.62,-1.3 -26.75,4.41 -61.86,4.41zm0 -92.79c4.15,-49.88 59.61,-13.87 61.86,-13.26l0 8.83c-20.2,-0.44 -13.48,-4.16 -28.37,-1.41 -17.34,3.22 -9.26,5.84 -33.49,5.84zm-216.54 -159.1l0 0zm0 0c10.04,-18.99 -1.2,-8.03 13.26,-13.26l0 13.26 -13.26 0zm-159.09 -57.45c8.74,-13.04 9.65,-18.4 22.1,-13.26 -4.55,11.25 1.54,3.48 -8.52,9.17 -4.82,2.74 -8.92,2.28 -13.58,4.09zm-154.67 -30.93c5.34,-7.99 11.42,-20.49 18.75,-13.15 10.72,10.71 -8.54,12.08 -18.75,13.15zm-826.38 -44.2c0,-59.99 -1.01,-53.18 62.54,-78.87 13.91,-5.61 20.77,-10.69 34.68,-13.92 -0.42,18.98 -14.06,62.9 -23.07,74.14 -16.5,20.61 -46.1,25.2 -74.15,18.65zm676.13 -110.46c2.54,-9.52 6.19,-21.31 14.16,-13.34 11.51,11.51 -5.54,9.98 -14.16,13.34zm1131.3 -26.53c22.14,95.03 9.87,49.47 43.63,150.81 36,108.11 82.82,224.12 -27.1,303.22 -106.93,76.98 -325.67,28.77 -352.39,-7.7 46.67,0 138.29,4.15 173.74,-3.02 52.51,-10.61 76.86,-43.15 113.51,-67.69 -7.99,-34.27 -56.46,-70.7 -101.64,-70.7 -97.96,0 -208.13,82.63 -346.36,41.45 -18.79,-5.61 -45.56,-15.46 -60.2,-28.19l132.59 -4.4c75.73,-4.05 158.67,-19.08 225.49,-48.5 23.21,-10.22 76.4,-35.46 88.25,-53.16 -105.97,-56.06 -238.64,8.91 -238.64,-247.47 0,-139.22 141.98,-251.89 278.41,-251.89l53.03 0c135.47,0 255.23,119.36 287.33,242.97 6.12,23.6 11.9,44.93 15.86,72.52 10.53,73.5 4.76,107.31 0.77,179.39 -8.86,-7.13 -11.8,-19.48 -16.12,-31.47 -27.94,-77.52 -50.57,-198.27 -155.26,-198.27 -43.53,0 -78.99,3.09 -114.9,22.1zm-1131.3 -190.02c10.22,-19.32 -3.41,-10.95 17.68,-13.26 -6.03,16.63 -1.04,6.79 -17.68,13.26zm-260.73 -287.24c21.86,5.08 96.09,50 115.65,65.53 85.13,67.59 70.05,109.93 65.53,164.26 -26.66,-7.12 -75.71,-105.83 -149.54,-155.37 -21.67,-14.55 -28.28,-48.24 -31.64,-74.42zm-238.64 -35.36c33.91,0 80.2,-15.15 97.23,48.62l-83.99 -39.76c-7.38,-3.69 -7.77,-4.1 -13.24,-8.86zm-225.37 -35.35c36.34,-0.81 82.14,-31.71 114.62,-30.42 28.08,1.12 75.94,42.36 88.66,61.35l-229.8 26.53 26.52 -57.46zm0 0c-36.19,8.44 -77.03,23.36 -114.9,26.52 6.5,-8.88 31.86,-27.93 42.8,-36.75 44.37,-35.74 87.12,-77.71 133.97,-109.09 0,-29.35 6.06,-90.24 2.16,-108.1 -6.79,-31.09 -28.74,-48.13 -41.94,-73.07 -60.38,14.05 -121.59,73.77 -160.45,113.53 -19.1,19.55 -49.24,149.5 10.2,217.89 -54.07,80.76 -154.74,164.8 -154.83,265.11 -0.04,49.06 11.66,81.49 31.1,110.52 26.33,-6.13 85.03,-20.63 96.04,-45.74 13.99,-31.9 -18.41,-74.78 -25.33,-104.51 83.26,0 195.72,-11.78 266.03,34.47 10.99,7.24 13.93,12.8 30.05,14.14 -7.48,-15.57 -9.65,-55.53 -18.78,-78.45 -29.75,-74.61 -103.22,-60.43 -170.48,-76.99 -13.96,-3.44 -27.8,-9.52 -40.54,-12.49 14.13,-21.09 39.29,-35.33 58.46,-52.01 7.9,-6.88 13.9,-12.45 21.09,-18.7 34.04,18.03 82.45,36.44 113.59,63.17l117.49 103.47c61.9,52.71 86.37,33.29 112.93,108.02 8.44,23.75 23.55,38.14 36.03,56.79 23.28,-11.18 55.43,0.27 70.82,-21.99 13.04,-18.86 16.28,-43.66 35.24,-57.57 0,171.71 -55.72,177.23 -199.45,224.79 -32.73,10.83 -68.7,32.82 -101.05,40.36 -3.96,-47.57 -43.86,-89.84 -89.52,-96.41 -109.4,-15.77 -185.34,149.57 -66.26,274.29l48.61 48.61c69.2,66.07 174.93,113.28 273.1,80.86 41.28,-13.64 88.56,-41.9 120.07,-65.53 23.4,-17.56 88.18,-72.01 111.72,-78.31 -32.69,68.15 -33.39,71.17 -87.27,124.85 -39.97,39.81 -42.28,54.36 -17.39,103.55 3.62,7.17 5.01,10.19 9.47,17.04 8.18,12.56 6.97,3.74 11.23,19.71 68.52,-15.97 219.23,-230.78 212.21,-371.28 -2.06,-41.38 -24.7,-64.25 -30.08,-89.25 -7.21,-33.54 -0.95,-187.48 -0.95,-233.28l24.94 45.78c6.95,20.65 10.81,33.19 15.26,55.45 28.98,145.06 43.13,360.91 -31.55,490.76 -54.57,94.91 -145.32,165.32 -277.96,136.91 -138.61,-29.67 -198.92,-117.6 -287.73,-136.49 -94.1,-20.02 -242.6,-41.21 -242.99,-181.27 -0.28,-102.96 51.7,-166.82 53.2,-234.37 -28.71,7.67 -71.7,47.04 -91.79,67.31 -23.96,24.19 -48.36,63.73 -62.88,96.2 -66.75,149.18 -11.82,366.41 107.16,485 56.87,56.68 116.9,100.48 197.17,125.44 84,26.1 191.89,23.68 280.83,1.24 64.33,-16.24 114.17,-40.12 170.54,-68.08 52.83,-26.22 100.46,-59.88 140.34,-102.72 27.26,-29.31 44.53,-63.95 62.91,-100.61 34.7,-69.17 70.71,-168.18 70.71,-251.89 11.72,3.13 192.18,135.09 203.21,154.74 17.39,30.96 28.11,100.71 42.96,138.22 18.13,45.79 31.04,86.13 51.31,129.88 41.79,90.23 102.39,133.44 194.65,163.3 46.53,15.06 99.61,20.28 147.77,33.42 22.53,6.13 42.9,13.41 64.26,24.12 11.97,5.98 18.21,8.76 28.57,15.62 11.45,7.57 16.97,13.38 31.78,16.84 3.73,-16.03 8.98,-27.89 13.82,-43.64 3.61,-11.74 11.58,-35.77 12.69,-49.17 62.21,5.17 252.5,171.95 433.7,-52.41 12.33,-15.27 21.77,-25.69 34.08,-41.05 6.27,-7.81 10.37,-10.73 17.26,-18.09l57.12 -57.78c76.9,-62.59 77.14,6.25 117.06,66.93 27.24,41.4 39.67,48.43 83.2,71.46 53.51,-79.91 73.68,-139.85 -33.9,-200.31 -60.18,-33.81 -176.54,-51.58 -271.02,-51.58 34.85,-52.05 82.31,-73.71 159.32,-207.47l42.1 -81.64c58.97,-142.01 64.83,-270.64 -8.76,-394.06 -10.36,-17.38 -22.34,-30.49 -34.14,-45.41l-61.92 -61.82c-10.47,-8.46 -11.53,-11.51 -24.06,-20.13 -93.36,-64.29 -179.68,-101.86 -320.32,-82.45 -114.73,15.84 -147.42,45.52 -224.42,107.04l-58.79 60.51c-32.54,40.17 -63.88,84.74 -65.78,146.41 -2.48,80.14 24.4,133.04 47.13,200.64 6.17,18.32 12.95,51.3 19.34,64.62 -24.85,-6.63 -46.2,-32.63 -63.53,-51.36 -69.07,-74.56 -107.26,-180.49 -172.03,-256.63 -54.59,-64.17 -114.7,-122.42 -202.43,-137.83l-189.52 -18.19c47.42,-41.22 270.7,-70.95 286.81,-221.58 5.07,-47.36 -21.71,-105.62 -39.34,-131.95 -128.32,0 -180.55,90.03 -244.71,108.83 -50.35,14.77 -107.69,-2.98 -148.05,-16.57 -24.73,-8.32 -111.72,-46.65 -128.7,-48.07l0 -8.82c78.76,0 207.02,23.11 252.41,13.76 95.32,-19.63 183.9,-98.45 224.86,-186.11 26.16,-55.99 48.85,-163.38 -27.4,-193.56 -33.34,-13.2 -93.66,-3.94 -118.44,7.95 26.7,55.63 23.01,44.09 59.47,90.77 10.65,13.63 15.17,15.16 15.66,37.38 -21.38,11.31 -21.46,9.05 -52.98,8.92 -27.24,-0.12 -38.6,1.88 -60.56,-5.86 -33.63,-11.84 -46.37,-36.15 -73.83,-54.32 -74.21,-49.04 -289.18,91.89 -363.59,136.66 -62.66,37.71 -153.84,33.92 -226.81,33.92 16.75,-71.9 92.94,-175.48 25.53,-237.65 -14.92,-13.75 -49.66,-34.3 -74.14,-36.33 -80.42,151.97 74.36,84.04 -41.15,277.02 -7.79,13.02 -17.03,22.89 -20.72,36.73 115.49,0 207.55,7.37 317.42,22.86 32.53,4.58 65.09,12.49 102.4,12.49 -6.6,24.71 -34.84,32.47 -48.61,53.03 -75.79,-17.64 -162.05,-53.62 -247.45,-57.49 -43.19,-1.96 -88.42,-0.98 -129.55,16.36 -25.93,10.94 -75.82,46.72 -82.59,72.07z"/>
   <path class="fil0" d="M2979.16 1679.67c3.86,-14.44 56.62,-73.08 66.29,-79.55l0 61.88c-18.85,9.04 -47.44,8.63 -66.29,17.67zm-203.28 -159.1c8.53,-36.56 48.91,-29.12 72.22,-19.18 6.77,2.89 6.91,2.96 11.91,5.78l13.1 8.99c-9.43,0 -16.29,0.49 -25.56,-1.17 -40.2,-7.21 -4.22,-10.12 -71.67,5.58zm273.99 -66.27c9.89,-14.77 10.73,-19.95 22.1,-4.43 -10.07,2.34 -10.23,3.18 -22.1,4.43zm-26.52 -88.38c10.65,-45.67 53.36,-23.74 66.29,-4.43 -60.44,0 -36.64,4.43 -66.29,4.43zm-649.61 -154.68c4.08,-15.27 2.4,-13.6 17.68,-17.68l0 13.26c-7.23,0.61 -13.74,-0.02 -17.68,4.42zm892.67 0c4.08,-15.27 2.39,-13.6 17.68,-17.68 -5.35,20.03 -2.15,8.37 -17.68,17.68zm304.92 -92.8c8.74,-13.05 9.65,-18.39 22.09,-13.26 -4.54,11.25 1.55,3.47 -8.5,9.17 -4.82,2.74 -8.93,2.29 -13.59,4.09zm-119.32 0c2.54,-9.53 6.19,-21.3 14.16,-13.33 11.52,11.51 -5.54,9.98 -14.16,13.33zm-1087.1 26.51c-8.65,-37.09 -4.42,-80.71 -4.42,-119.31 0,-249.58 231.6,-463.19 468.41,-357.93 93.23,41.43 163.52,157.43 163.52,273.96l0 79.54c0,16.54 -77.32,77.03 -93.48,87.7 -41.71,27.56 -56.65,-4.03 -140.73,40.46 24.96,34.07 139.07,73.43 189.04,84.94 31.69,7.31 84.05,13.47 120.53,16.48 22.45,1.84 47.81,-1.41 70.24,0.45 22.26,1.84 37.76,4.19 66.52,4.19l-22.01 13.34c-144.35,64.24 -300.64,-31.02 -428.74,-31.02 -14.98,0 -14.15,12.88 -20.24,41.63 -13.71,64.74 -24.7,56.98 34.89,85.13 53.14,25.09 150.97,19.07 215.14,19.07l0 8.84c-18.14,4.23 -22.65,7.77 -38.48,14.55 -139.06,59.56 -305.71,37.93 -385.91,-111.73 -12.54,-23.41 -14.24,-40.89 3.06,-76.68 9.1,-18.81 15.06,-14.78 26.67,-26.35 21.05,-21.02 43.41,-171.59 50.56,-214.59 2.29,-13.76 7.05,-30.3 8.25,-44.79 -35.44,-2.95 -16.4,-13.25 -97.22,-13.25 -108.27,0 -144.49,134.63 -175.96,208.5l-9.64 16.87zm1246.19 -269.56c-24.55,0 -30.5,2.91 -48.61,4.41l47.55 -49.67c1.06,27.74 -4.03,25.48 1.06,45.26zm150.25 -159.09c4.13,-15.45 1.68,-9.93 13.26,-17.67 4.1,19.33 4.89,10.63 -13.26,17.67zm150.25 -123.73c-1.34,16.12 -16.14,47 -22.09,61.87 -5.95,14.84 -20.76,45.73 -22.1,61.86l-8.84 0c-2.32,-27.88 -15.61,-45.88 -17.68,-70.71 23.34,-15.62 56.06,-49.12 70.71,-53.02zm0 0l0 0zm17.68 -22.11c7.59,-32.55 43.85,-72.02 68.08,-91.01 49.79,-39.01 62.01,-34.54 104.27,-54.82 -8.1,30.33 -72.28,100.67 -113.95,124.69 -13.05,7.53 -41.09,19.7 -58.4,21.14zm252.7 -95.59c8.48,-19.17 19.35,-34.14 30.12,-50.24l66.29 0 -96.41 50.24zm361.46 -107.64c14.57,3.81 64.39,39.73 79.65,52.98l-53.04 0 -26.61 -52.98zm-291.56 -318.22c0,68.47 51.62,118.18 53.03,181.18 -58.18,0 -111.84,-6.27 -168.03,-8.74 -36.45,-1.58 -87.46,-43.21 -118.96,-62.22 -61.77,-37.24 -198.77,-105.81 -278.66,-105.81 -56.53,0 -28.92,70.71 -163.51,70.71 -1.93,-23.12 -8.84,-33.65 -8.84,-61.87 0,-13.54 18.89,-15.13 29.68,-36.59 6.69,-13.33 14.11,-38.27 14.51,-56.2 -47.15,-5.61 -92.21,-7.76 -131.94,18.3 -98.06,64.3 -15.26,262.96 131.84,335.33 99.44,48.94 220.14,17.58 327.12,17.58 -12.66,17.26 -84.9,41.76 -105.5,49.16 -172.04,61.86 -158.86,21.59 -262.6,-39.02 -37.92,-22.17 -100.56,-45.51 -157.78,-45.51 -144.23,272.58 215.11,309.37 247.47,353.53 -56.56,0 -179.29,11.79 -228.26,28.06 -195.51,64.93 -209.91,301.9 -363.9,405.02 0,-23.47 6.99,-44.3 10.82,-68.72 13.56,-86.42 9.23,-199.47 -24.13,-275.92 -4.13,-9.47 -8.71,-20.28 -14.06,-30.12 -5.58,-10.24 -11,-18.69 -16.76,-27.45 -11.23,-17.09 -25.98,-38.04 -41.65,-51.14 -76.39,-63.93 -155.95,-99.04 -263.33,-99.04 -209.63,0 -397.22,128.46 -446.48,322.45 -36.29,142.88 8.14,321.47 109.47,425.54 44.73,45.95 89.2,95.81 124.89,149.09 -74.24,0 -151.82,14.66 -209.44,33.62 -80.58,26.53 -179.1,82.22 -110.12,175.47 15.13,20.45 23.26,31.01 45.57,42.8 91.19,-61.06 57.71,-223.15 145.96,-159.23 21.19,15.35 39.06,37.31 58.45,56.48 73.47,72.61 139.82,195.57 259.6,195.57 101.89,0 159.6,-22.15 243.05,-66.3 0,17.65 12.53,90.91 17.68,101.64 103.62,-69.39 157.7,-60.79 273.16,-89.21 98.12,-24.16 153.65,-72.25 201.23,-165.55 43.54,-85.4 89.73,-324.85 186.74,-356.81 35.48,-11.69 37.3,-5.05 67.28,-25.54 21.13,-14.43 30.73,-30.97 49.36,-43.44 1.33,16 9.95,39.12 14.82,55.88 5.64,19.42 9.84,36.22 14.25,56.48 8.41,38.63 16.49,79.04 28.99,112.41 64.37,171.77 333.62,323.2 529.68,323.2 419.99,0 650.57,-639.94 325.03,-766.94 -22.2,-8.65 -13.25,-11.61 -24.52,-32.92 -12.84,8.6 -5.94,8.95 -22.1,13.26l0 8.85c41.93,9.76 35.83,22.93 51.24,63.64 37.04,97.85 27.71,211 -62.64,274.05 -104.36,72.84 -132.12,0.37 -315.62,143.98 -52.19,40.85 -103.85,53.04 -176.76,53.04 -208.45,0 -296.09,-189.13 -296.09,-384.47 0,-87.91 8.26,-174.68 30.88,-256.36 5.13,-18.51 13.45,-47.79 26.57,-57.39 0,46.52 4.74,148.51 0.1,190.1 -4.16,37.27 -92.8,80.09 45.47,312.29 22.82,38.32 95.85,145.43 135.62,156.05 8.03,-12 44.19,-58.04 44.19,-70.71 0,-35.41 -30.01,-64.52 -30.94,-106.06 33.27,15.97 75.48,23.11 109.85,36 147.72,55.37 186.86,31.95 313.1,-72.64 15.71,-13.01 20.34,-22.81 33.37,-37.34 54.01,-60.1 112.95,-186.47 18.11,-241.36 -8.81,-5.09 -138.57,-48.81 -138.57,-11.67 0,180.73 12.21,74.87 54.58,122.2 11.48,12.82 23.2,51.03 24.96,72.24 -9.96,-4.78 -24.09,-7.03 -37.14,-11.45 -15,-5.1 -21.46,-8.29 -32.93,-15.7 -24.44,-15.79 -24.34,-32.9 -38.92,-58.3 -23.98,-41.76 -69.42,-64.56 -115.69,-83.16 -47.62,-19.16 -94,-30.38 -132.03,-62.42 -65.69,-55.34 -86.09,-144.05 -48.55,-222.84 0.14,-0.29 3.82,-7.42 4.58,-8.69 5.2,-8.61 2.56,-4.72 7.38,-10.29 0,28 -7.55,80.89 -1.49,98.69 8.91,26.22 28.82,45.73 41.26,69.25 13.19,-6.34 12.79,-2.8 28.97,-6.39 26.37,-5.88 55.98,-17.37 71.01,-39.48 14.78,-21.71 23.76,-90.07 23.76,-126.49 16.59,0.37 40.16,8.55 53.57,12.71 17.96,5.59 35.01,13.32 56.91,13.81 18.58,-38.73 26.34,-97.72 60.95,-124.66 22.23,-17.29 116.54,-30.58 124.65,-60.95 -40.8,0 -79.44,-10.26 -116.19,-16.37 -39.93,-6.64 -81.53,-10.48 -118.03,-18.98 16.82,-25.1 54.93,-49.9 83.89,-57.89 42.58,-11.76 107.44,37.62 151.92,51.89 53.62,17.21 32.38,13.18 76.82,100.45 17.56,34.49 -4.93,23.47 -73.61,29.66 -53.67,4.85 -82.05,23.72 -113.9,62.87 -12.85,15.79 -27.68,34.55 -36.73,51.65 68.47,36.23 179.44,-2.03 244.76,-24.79 18.47,-6.43 34.24,-15.41 51.32,-19.4 0,28.68 4.71,44.41 4.71,66.3 0,37.09 -21.24,75.81 26.15,97.29 10.48,4.75 33.57,15.11 44.26,17.6 4.49,-19.25 15.41,-32.21 21.59,-49.12 51.18,-139.87 -78.79,-222.74 -145.32,-322.09 27.5,-41.06 30.94,-55.76 30.94,-106.06 0,-32.11 -3.92,-64.75 -8.73,-92.92 -4.01,-23.48 -27.48,-41 -46.17,-55.47 -57.96,-44.82 -61.85,-50.47 -126.29,-81.39 -30.3,45.24 -56.79,84.96 -33.68,144.14 17.56,44.95 55.97,79.59 77.87,120.99 -17.29,-0.37 -38.45,-6.96 -54.59,-11.69 -20.07,-5.88 -36.64,-9.69 -55.92,-14.78 -125.14,-33.13 -135.3,-35.28 -255.75,0.49 -36.56,10.86 -81.34,21.44 -119.84,30.4 -8.83,-13.17 -33.71,-35.78 -48.61,-39.77l0 -8.83c45.34,0 150.31,-23.65 200.07,-29.73 71.8,-8.79 140.76,-10.05 219.75,-10.05 2.49,10.71 4.62,17.73 8.83,26.53 11.19,-7.5 18.09,-7.09 22.1,-22.11 -19.68,-1.64 -26.39,-4.67 -35.64,-17.39 -7.04,-9.65 -16.03,-24.26 -21.88,-35.57 -90.09,-174.48 56.01,-101.04 -30.86,-265.21 -16.71,1.38 -56.28,19.75 -68.93,28.3 -18.11,12.22 -37.13,35.85 -37.13,64.5z"/>
   <path class="fil0" d="M3933.7 7521.76l0 -17.68c25.21,0 30.56,4.43 57.45,4.43 -6.69,4.64 6.16,0.1 -11.66,6.03l-45.79 7.22zm335.86 -79.55c30.31,16.06 53.23,16.01 61.86,53.05 -19.55,-0.45 -31.22,-4.43 -57.45,-4.43 3.71,-15.47 9.61,-17.22 -4.41,-48.62zm4.41 -35.34l75.13 0c-4.7,17.6 -12.27,16.98 -26.52,26.51 -16.42,-3.82 -40.03,-14.79 -48.61,-26.51zm-543.55 -106.06l0 0zm0 0c5.17,-19.35 7.35,-18.51 17.68,-4.43 -8.07,4.01 -5.53,3.41 -17.68,4.43zm132.57 -163.5c18.38,12.29 170.04,209 176.77,234.2 -56.54,-27.13 -69.92,-18.05 -135.95,-89.43 -62.99,-68.1 -68.46,-61.63 -55.77,-102.21 4.6,-14.69 9.41,-31.02 14.95,-42.56zm-132.57 -53.04l0 0zm0 0c10.95,-16.36 8.63,-16.95 17.68,-4.41 -8.07,3.98 -5.53,3.41 -17.68,4.41zm296.08 -455.18l0 0zm-760.09 -4.42c7.75,-11.56 2.23,-9.13 17.68,-13.25 -6.03,16.63 -1.04,6.79 -17.68,13.25zm-247.47 -154.65c7.75,-11.59 2.23,-9.15 17.68,-13.26 -4.53,16.93 -0.36,11.43 -17.68,13.26zm123.73 -26.53c4.08,-15.28 2.4,-13.59 17.68,-17.66 -5.35,20.03 -2.14,8.35 -17.68,17.66zm-415.4 101.65c0,67.68 -4.15,59.14 36,53.98 21.04,-2.71 27.67,-2.19 46.93,-6.41 139.58,-30.55 262.43,-92.03 395.88,-27.03 16.49,8.04 25.07,7.46 29.39,23.65 -38.38,3.19 -34.82,10.16 -78.28,3.21 -112.44,-17.94 -129.88,-18.28 -253.74,22.71 -25.81,8.54 -127.09,48.14 -140.82,66.88 84.21,40.4 185.12,25.39 221.59,136.35 39.38,119.82 12.96,239.54 -90.19,313.23 -152.05,108.63 -412.38,70.67 -507.12,-166.66 -24.17,-60.57 -36.19,-191.09 -22,-251.99 4.08,4.71 -0.04,-1.4 5.63,7.62l16.4 32.21c37.45,84.41 57.63,151.25 154.58,159.19 35.41,2.9 78.92,3.85 115.05,-4.58 -1.45,-17.33 -7.54,-28.05 -12.54,-40.49 -25.75,-63.98 -15.77,10.19 -31.86,-131.64 -3.16,-27.79 -17.49,-53.47 -26.98,-79.09 -50.87,-137.26 -18.14,-206.86 140.03,-232.52 45.1,-7.32 89.73,-5.94 130.44,-2.59 24.59,2.02 46.92,0.74 67.32,3.38 20.37,2.64 46.66,5.69 65.02,5.69 -45.99,39.97 -178.5,1.43 -231.06,47.35 -15.81,13.8 -29.67,39.9 -29.67,67.55zm353.54 -132.57c4.39,-16.48 7.6,-19.96 22.09,-13.27 -10.93,14.91 -4.78,4.67 -22.09,13.27zm-57.46 -35.37l0 0zm0 0c5.17,-19.33 7.36,-18.51 17.68,-4.42l-17.68 4.42zm-17.67 -198.85c13.06,6.26 35.5,10.71 48.61,4.41 -6.96,29.89 -0.63,16.02 0,44.19l-39.77 -4.41c-0.24,-10.77 -5.71,-37.2 -8.84,-44.19zm1471.57 1290.38c-12.53,-6.01 -64.82,-8.8 -83.96,-13.25 19.48,-29.1 91.57,-55.09 101.64,-92.8 16.85,3.92 17.57,4.41 39.77,4.41l0 -13.26c-18.55,-4.31 -12.71,-9.56 -34.15,-7.62 -20.79,1.88 -14.29,8.21 -38.28,-3.79 -18.67,-9.33 -41.05,-24.61 -54.71,-38.2 -44.65,-44.42 -46.72,-58.93 -80.56,-109.48 -71.34,0 -48.02,14.33 -88.38,17.69 0,-27.48 -6.76,-77.27 -12.48,-98.01 -10.96,-39.67 -25.98,-39.47 -69.65,-45.53 -22.96,-3.2 -25.15,0.78 -46.38,1.74 -46.71,2.13 -25.97,-0.6 -30.56,84.38 -1.11,20.58 -4.44,27.21 -4.44,52.99 -23.3,-17.06 -53.96,-100.27 -29.2,-157.36 34.35,-79.16 166.02,-115.25 249.97,-165.42 21.38,-12.77 38.57,-27.14 56.55,-45.09 18.51,-18.48 36.44,-33.88 36.44,-69.62l79.54 0c-33.99,70.85 -26.42,42.47 -76.52,86.99 -39.13,34.78 20.65,84.67 27.91,111.87 136.36,0 241.23,-173.13 36.02,-340.93 -71.98,-58.85 -173.93,-113.26 -267.36,-67.18 -34.52,17.03 -133.64,65.49 -161.96,67.83 12.67,-23.93 36.92,-43.27 45.7,-69.24 9.77,-28.92 2.91,-63.91 2.91,-103.09 -159.18,0 -266.55,242.39 -232.38,387.05 4.72,19.93 13.03,24.79 15.45,42 7.43,52.66 0.39,173.89 0.39,233.81 -22.88,-26.33 -32.78,-67.2 -40.7,-100.71 -8.61,-36.4 -16.33,-83.25 -16.63,-129.2 -0.16,-25.05 -6.76,-38.72 -4.36,-65.87 1.81,-20.44 2.57,-41.72 4.48,-66.36 7.37,-95.26 33.35,-192.69 89.91,-268.03 32.99,-43.93 73.02,-73.07 126.81,-89.73 33.11,-10.26 94.25,-15.96 129.18,-1.85l403.71 170.77c114.58,56.9 162.57,154.8 104.6,274.13 -7.95,16.36 -15.46,32.54 -23.79,46.91 -8.48,14.64 -24.71,28.8 -26.37,48.75 80.5,-1.79 145.93,-84.54 169.67,-152.92 88.13,-253.84 -85.34,-519.07 -320.55,-606.54 -216.27,-80.41 -417.87,35 -557.51,152.72 -9.08,7.67 -13.74,8.91 -21.93,17.85 -57.17,62.28 -85.75,136.58 -106.69,220.32 -10.03,40.13 -20.63,89.38 -37.98,125.53 -36.59,-19.37 -71.35,-46.88 -104.22,-72.56 -68.37,-53.43 -118.36,-126.96 -148.19,-209.76 -8.01,-22.24 -14.19,-41.17 -22.1,-66.28 -12.96,-41.19 -29.91,-89.76 -55.01,-126.17 -39.54,-57.37 -91.17,-84.84 -157.83,-111.74 -99.49,-40.15 -167.63,-1.53 -224.25,-45.31 -13.77,-10.65 -39.25,-30.66 -44.07,-48.73 -12.11,8.86 -15.1,29.23 -20.49,45.81 -5.56,17.08 -11.14,35.42 -14.87,51.41l-104.37 -45.88c-88.38,-29.26 -157.44,-27.62 -234.13,29.98 -18.36,13.77 -63.54,60.32 -76.9,77.77 -32.86,42.91 -116.22,140.52 -167.13,136.1 -57.67,-4.99 -60.2,-138.06 -146.63,-158.2 -9.27,6.79 -26.11,34.57 -32.23,47.31 -33.91,70.6 -1.47,120.44 66.04,153.1 70,33.89 180.88,38.22 284.37,38.22 -6.09,22.82 -61.7,68.43 -80.65,87.27 -147.81,146.96 -268.41,400.7 -140.37,593.35 68.51,103.08 177.7,178.4 302.38,205.82 36.6,8.06 107.78,19.7 151.66,13.87 96.03,-12.72 169.34,-32.16 236.52,-99.33 65.44,-65.43 85.71,-147.28 98.7,-237.17 27.14,-187.93 -68.85,-183.75 -86.55,-250.05 96.33,22.45 150.26,122.06 192.92,200.39 9.53,17.47 18.56,34.77 28.87,50.68 20.22,31.19 41.05,66.96 66.47,92.6 149.63,150.98 196.66,100.02 346.3,126.55 33.51,5.95 97.65,26.86 112.27,46.82 -120.89,0 -342.87,6.1 -370.09,155.79 -11.61,63.83 4.2,96.06 16.56,149.14 95.33,-2.13 172.51,-62.72 253.68,-95.45 82.64,-33.31 160.57,0.47 228.92,45.92l25.6 18.6c-171.31,0 -320.18,-28.81 -417.27,113.01 -27.46,40.11 -44.06,92.79 -59.55,139.44 -8.03,24.18 -11.3,26.97 1.83,45.46 17.97,25.32 34.85,54.85 58.75,74.13 30.71,24.78 60.06,22.29 102.49,12.42 22.75,-97.68 20.26,-73.87 -17.68,-70.71 -12.92,-24.42 -17.68,-50.93 -17.68,-88.39 73.13,0 121.8,35.58 191.7,46.95 84.84,13.78 150.93,-14.03 202.17,-37.54 55.4,-25.42 98.56,-58.91 141.67,-96.95 16.26,-14.34 18.44,-8.71 45.17,-12.3 18.85,-2.53 42.41,-3.1 56.86,-5 18.32,-2.4 42.4,-3.42 56.91,-4.95 19.74,-2.1 41.18,-3.8 56.78,-5.11 -5.81,69.73 -96.15,169.57 -25.38,233.08 14.61,13.1 48.19,31.5 73.98,32.08 6.01,-25.77 21.94,-41.92 15.46,-77.01 -11.88,-64.28 -17.05,-97.51 8.49,-164.19 7.76,-20.3 27.67,-55.54 29.09,-72.56 -69.12,0 -154.03,20.89 -219.77,12.09 -59.34,-7.94 -136.48,-22.5 -142.61,-96.06 46.8,10.9 95.38,47.16 142.48,56.38 15.51,3.04 51.88,1.07 69.64,1.07 43.43,0 95,2.62 137.33,0.33 25.51,-1.37 61.2,-41.89 74.79,-62.2z"/>
   <path class="fil0" d="M5719.03 7526.19c-22.4,0 -24.08,-4.43 -48.61,-4.43l25.89 -9.46c9.05,-2.64 21.06,-5.77 31.56,-8.22 -3.9,8.15 -4.69,14.44 -8.84,22.11zm-402.14 -57.46c24.2,0 25.92,3.9 48.46,4.57 17.22,0.51 35.79,-0.15 53.18,-0.15 -16.72,14.55 -43.81,26.52 -66.29,26.52 -12.53,0 -29.67,-22.45 -35.35,-30.94zm163.51 -13.25c8.44,-12.61 12.34,-18.84 17.67,-13.27 4.62,11.81 2.79,11.13 -17.67,13.27zm-8.84 -83.97l78.47 -80.62c1.07,20.95 -4.64,54.24 -15.16,64.39 -11.01,10.62 -45.31,14.73 -63.31,16.23zm406.56 -66.28c10.37,-15.49 4.23,-15.72 22.1,-17.67 -4.22,15.78 -4.67,13.49 -22.1,17.67zm-291.66 -61.86c5.5,-11.5 8.83,-47.84 8.83,-66.3 0.59,0.92 1.3,1.36 1.49,2.93 0.01,0.08 11.1,28.73 11.77,58.94 -8.4,0.71 -15.48,1.85 -22.09,4.43zm35.35 128.14c45.53,-67.99 88.02,-115.61 133.21,-176.11 12.57,-16.85 32.49,-47.74 47.97,-58.09 0.65,28.91 29.16,62.28 10.44,85.24 -8.51,10.43 -19.54,17.42 -28.77,28.98 -10.91,13.69 -14.24,17.92 -26.95,30.5 -17.71,17.55 -36.9,40.28 -57.11,53.38 -21.16,13.73 -51.86,29.83 -78.79,36.1zm256.31 -282.83c7.54,-11.26 7.57,-13.79 22.1,-17.67 -4.22,15.79 -4.67,13.5 -22.1,17.67zm4.42 -185.59c4.08,-15.29 2.4,-13.59 17.68,-17.67l0 13.24c-7.24,0.62 -13.75,0 -17.68,4.43zm-163.51 -194.44c4.85,2.55 33.34,18.21 36.44,21.04 11,10.02 3.33,6.76 3.33,45.24 -9.73,-7.13 -15.36,-20.3 -21.86,-31.16 -7.6,-12.72 -14.35,-19.85 -17.91,-35.12zm313.76 8.83c5.34,-7.98 11.42,-20.48 18.75,-13.15 10.72,10.72 -8.54,12.08 -18.75,13.15zm-313.76 -8.83l0 0zm870.57 -238.63c7.75,-11.59 2.24,-9.15 17.68,-13.26 -4.53,16.93 -0.36,11.43 -17.68,13.26zm110.48 -48.62l181.24 4.37c50.94,-0.29 171.2,8.94 203.41,48.47 63.38,77.76 -74.01,364.43 -79.73,433.26 59.57,4.96 132.32,20.59 188.77,-10.09 74.1,-40.26 67.88,-181.96 107.31,-210.87l4.42 101.64c0,389.13 -328.63,478.31 -519.51,351.59 -58.03,-38.52 -121.27,-116.62 -121.27,-210.16 0,-138.77 23.41,-183.52 155.61,-220.04 22.64,-6.24 72.94,-15.04 78.61,-36.28 -19.22,-4.48 -48.94,-20.68 -67.74,-29.49 -59.35,-27.81 -167.3,-63.32 -237.18,-63.32 -42.26,0 -145.29,30.9 -167.93,0 55.58,-14.84 36.36,-44.19 181.19,-44.19 102.95,0 164.89,53.04 300.5,53.04 28.41,0 35.22,-12.49 57.45,-17.68 -10.43,-44.76 -48.65,-101.41 -93.83,-113.88 -28.63,-7.9 -142.94,2.38 -171.32,-36.37zm-172.35 -8.83c4.08,-15.29 2.4,-13.6 17.68,-17.68 -5.35,20.03 -2.15,8.35 -17.68,17.68zm61.87 -30.94c4.08,-15.29 2.4,-13.59 17.68,-17.68 -5.35,20.03 -2.15,8.36 -17.68,17.68zm61.05 -154.78l-30.12 0.1c-16.89,0 -1.6,-1.35 -13.25,4.43 3.76,-45.29 3.33,-44.85 48.61,-48.62l-5.24 44.09zm-1466.33 1241.88c13.58,20.29 49.57,60.86 74.78,62.2 212.06,11.45 271.01,-55.93 353.87,-57.78 -33.81,145.13 -258.2,83.97 -366.79,83.97 9.36,40.16 60.61,77.54 65.12,151.18 4.05,66.22 -59.09,65.39 -7.67,162.58 47.79,-3.98 103.76,-36.43 106.3,-88.35 2.96,-60.24 -31.4,-108.73 -35.59,-159.13 38.29,0 76.6,0.01 114.89,0 103.93,-0.03 56.96,6.89 157.25,72.55 79.04,51.76 169.86,83.82 274.14,67.17 33.29,-5.32 62.69,-13.45 93.59,-21.29 64.11,-16.3 49.48,-9.13 102.54,-7.94 0,77.33 3.19,66.55 -53.03,61.86 -18.5,34.97 -0.86,45.26 0,83.97 56.3,4.67 140.29,20.13 163.34,-84.15 17.73,-80.23 -22.31,-154.56 -58.56,-197.4 -106.46,-125.78 -210,-102.91 -418.53,-102.91 30.1,-26.18 74.24,-47.84 111.01,-61.35 111.17,-40.87 174.88,8.45 263.16,58.38 21.67,12.24 111.47,42.2 145.35,18.71 23.39,-16.21 57.85,-176.47 -61.37,-239.69 -86.23,-45.75 -174.6,-50.05 -303.49,-50.05 13.7,-18.68 76.51,-40.53 108.52,-46.16 48.55,-8.53 96.56,-5.89 146.71,-12.37 110.77,-14.31 182.56,-78.17 241.66,-156.06 63.06,-83.11 99.86,-188.59 177.82,-259.68 19.92,-18.17 47.03,-40.31 76.55,-42.77 -19.44,36.73 -37.73,66.63 -54.36,109.15 -14.44,36.93 -28.55,90.27 -29.9,138.33 -5.19,184.36 158.36,320.77 332.05,339.95 183.05,20.21 360.91,-45.06 446.05,-216.19 95.75,-192.44 54.39,-400.77 -91.79,-557.89 -15.49,-16.64 -21.26,-28.73 -40.16,-43.79 -23.62,-18.82 -41.08,-40.61 -65.15,-58.59 -11.44,-8.56 -15.8,-10.95 -19.47,-24.73 109.11,0 228.3,-15.79 302.04,-51.47 80.54,-38.97 105.48,-80.6 46.52,-155.68l-48.07 -44.74c-50.24,33.65 -52.95,126.33 -74.9,141.63 -9.43,6.6 -42.68,13.33 -59.54,15.97 -127.62,19.98 -130.31,-222.47 -339.05,-245.45 -38.17,-4.21 -95.6,10.39 -125.65,19.02 -37.97,10.88 -77.19,26.07 -107.92,42.32 -5.01,-21.53 -10.85,-83 -17.67,-97.22 -18.81,5.03 -49.34,47.58 -115.7,65.49 -135.02,36.45 -204.16,-22.24 -313.86,141.3 -71.85,107.12 -93.49,275.21 -181.35,362.21 -46.92,46.47 -108.31,80.56 -166.86,111.55 -2.04,-91.26 -84.71,-258.97 -146.84,-334.85 -76.46,-93.34 -166.68,-162.74 -290.6,-195.51 -158.99,-42.03 -307.92,2.13 -431.31,99.11l-63.04 60.68c-6.83,8.49 -12.13,12.32 -19.01,20.76 -113.49,139.13 -167.72,399.74 -29.2,538.77 23.4,23.48 65.69,53.12 109.43,54.08 -5.82,-21.78 -36.37,-56.49 -48.16,-93.25 -30.58,-95.32 5.89,-184.9 78.02,-248.1l81.43 -59.97c102.06,-65.98 242.31,-110.21 358.85,-140.51 120.59,-31.35 229.25,44.23 275.27,136.7 19.19,38.54 29.27,61.03 40.32,105.52 20.65,83.08 23.37,159.74 18.57,255.44 -2.82,56.37 -32.7,203.98 -61.89,225.36 0,-58.82 -6.9,-177.68 0.39,-229.4 1.64,-11.6 17.35,-43.37 24.43,-90.59 4.29,-28.66 -5.54,-81.26 -11.45,-104.35 -25.29,-98.59 -106.46,-238.52 -225.49,-238.52 0,45.86 21.1,100.89 22.1,145.83 -58.55,-4.88 -112.09,-39.22 -171.62,-49.35 -106.99,-18.19 -235.66,63.69 -292.43,142.11l-39.71 70.76c-7.75,17.63 -20.21,65.39 -22.12,88.36 8.38,12.51 18.57,20.88 29.84,32.04 14.13,13.98 18.52,21.21 30.96,35.32 13.43,15.26 52.71,55.41 67.36,65.22 23.5,-20.42 71.31,-54.05 88.38,-79.55 -14.4,-61.8 -90.64,-56.27 -110.48,-141.4 26.52,0 63,5.15 80.31,12.48 29.12,12.34 26.34,30.83 40.3,56.94 20.91,39.05 71.34,62.27 114.83,79.6 120.69,48.1 179.96,32.88 179.96,204.5 -18.46,-12.37 -24.62,-38.4 -42.7,-45.68 -8.72,-3.51 -65.15,-10.81 -76.62,-11.77 -49.27,93.12 4.13,58.47 -60.7,124.95 -10.05,10.29 -25.5,32.56 -27.68,7.62 -24.75,0.56 -91.28,38.81 -99.38,66.14 -2.74,9.28 11.61,2.6 -25.13,25.86 -32.36,20.48 -119.01,68.84 -149.47,75.94l0 13.26c37.56,3.11 134.8,51.05 181.18,61.86 0,39.47 -2.06,31.59 -44.11,31.02 -26.48,-0.36 -53.13,-0.09 -79.62,-0.09z"/>
   <path class="fil0" d="M7682.13 6046.77l-1 -23.09 22.09 0 -21.09 23.09zm29.93 -31.93l0 -22.1 48.61 0c-4.67,4.07 -1.23,2.31 -10.32,7.36l-38.29 14.74zm57.45 -53.03l48.61 0c-8.58,11.71 -32.19,22.68 -48.61,26.51l0 -26.51zm314.81 -224.32l-1.05 -49.67 48.61 0 -47.56 49.67zm171.29 -124.79l-48.61 4.41c12.83,-19.15 36.3,-63.91 53.04,-75.12 0,30.9 -4.43,42.25 -4.43,70.71zm-353.53 -190.03l17.68 154.67c-3.94,-4.53 -7.49,-8.56 -11.52,-14.99l-23.46 -56.2c-4.89,-25.62 -4.1,-67.79 17.3,-83.48zm287.25 66.29c4.08,-15.28 2.4,-13.6 17.67,-17.68 -5.35,20.04 -2.14,8.36 -17.67,17.68zm-707.06 0c4.08,-15.28 2.39,-13.6 17.67,-17.68 -5.35,20.04 -2.14,8.36 -17.67,17.68zm667.28 4.43l-8.83 0c0,-34.48 -5.42,-46.28 13.26,-53.04 11.39,13.64 -2.91,34.81 -4.43,53.04zm-852.89 26.51c0,-40.75 12.46,-74.52 13.26,-110.49 19.78,4.62 46.2,16.02 66.29,17.68l-79.55 92.81zm985.47 -92.81c4.08,-15.27 2.39,-13.6 17.68,-17.68l0 13.26c-7.23,0.62 -13.75,-0.02 -17.68,4.42zm-751.25 -44.19c8.71,5.84 13.52,11.03 22.15,17.63 10.78,8.22 14.3,10.6 22.04,22.14 -45.38,0 -38.55,4.23 -44.19,-39.77zm689.38 13.26c4.08,-15.27 2.4,-13.6 17.68,-17.68 -2.19,20.01 -2.23,11.68 -17.68,17.68zm-39.77 4.43l-8.84 0c0,-25.66 2.84,-34.05 4.42,-53.04 14,3.73 16.91,7.55 14.63,20.49 -0.01,0.02 -4.15,8.87 -6.05,14.17 -3.15,8.76 -3.1,5.64 -4.16,18.38zm132.57 -35.37c4.08,-15.26 2.4,-13.6 17.68,-17.67l0 13.26c-7.23,0.61 -13.75,-0.02 -17.68,4.41zm-48.61 -22.08c0,-44.28 -6.29,-46.38 8.84,-57.46 23.12,12.98 -2.57,52.86 -8.84,57.46zm79.55 -39.78c4.08,-15.28 2.39,-13.6 17.67,-17.68l0 13.27c-7.22,0.6 -13.74,-0.02 -17.67,4.41zm-128.16 8.84l-8.84 0c-0.34,-15.31 -10.28,-54.73 -0.4,-75.53 8.85,-18.65 1.77,-8.56 13.66,-12.85 8.2,17.08 -4.42,42.29 -4.42,88.38zm-313.76 -110.49c31.51,2.63 70.56,51.25 85.43,78.09 51.48,92.93 39.95,222.71 1.74,318.41 -12.52,31.36 -42.82,95.41 -65.07,111.71 0,-38.44 -8.08,-96.99 5.63,-126.93 43.93,-95.95 33.99,-131.04 5.02,-246.1l-32.75 -135.18zm402.15 48.62c-0.59,-0.93 -1.31,-3.53 -1.5,-2.92l-4.97 -12.71c-5.97,-23.71 -6.14,-58.4 15.3,-72.76 0,26.13 -3.87,67.07 -8.83,88.39zm-75.13 -132.58c0,-17.51 17.02,-30.46 30.94,-39.77l0 97.22c-10.48,-3.79 -5.96,-1.57 -11.96,-10.15l-18.98 -47.3zm-393.3 39.77l0 -57.45c13.19,3.53 18.86,8.81 15.51,24.06l-10.2 25.42c-3.19,6.09 -2.18,4.38 -5.31,7.97zm494.94 -106.06c11.93,-0.98 12.02,-2.06 22.09,-4.4 -4.17,17.92 -8.83,44.5 -8.83,66.27l-4.42 0c0,-16.5 -3.84,-51.44 -8.84,-61.87zm-839.64 256.31c-37.67,-19.93 -52.39,-41 -68.93,-50.39 -25.99,-14.79 -72.88,1.79 -107.83,1.79l-39.77 114.9 -132.58 -13.26c-0.93,-41.86 -53.01,-162.92 38.66,-266.27 130.59,-147.22 453.62,-114.93 549.09,27.64 -39.82,-3.31 -171.56,-65.49 -207.7,-66.3 -14.7,63.08 -30.94,187.05 -30.94,251.89zm799.87 -437.49c0,-11.5 23.9,-31.67 30.93,-39.77 0,39.07 -4.42,61.27 -4.42,97.23 -5,-5.76 -2.05,-1.47 -7.33,-10.36 -3.24,-5.44 -4.57,-8.78 -7.51,-14.57 -5.6,-11.07 -11.67,-18.95 -11.67,-32.53zm-101.64 -30.92c7.75,-11.59 2.23,-9.15 17.67,-13.27 -4.52,16.94 -0.36,11.45 -17.67,13.27zm-159.09 -70.72c24.09,11.56 45.75,5.99 57,31.38 4.2,9.5 13.4,61.1 13.7,74.68 -17.36,-4.04 -55.88,-16.72 -61.89,-30.43 -4.86,-11.12 1.54,-11.85 -1.61,-33.87 -2.31,-16.26 -6.74,-25 -7.2,-41.76zm406.56 -141.41c2.43,-9.11 6.47,-21.02 13.68,-13.8 7.86,7.85 -5.26,8.75 -13.68,13.8zm-287.25 -119.32l-8.83 0c0,-12.1 -2.02,-34.73 3.86,-44.74 5.75,-9.8 -1.55,-3.87 9.4,-8.29 11.39,13.66 -2.91,34.82 -4.43,53.03zm176.77 304.92c0,-82.04 5.11,-147.5 22.01,-212.2 14.43,-55.2 51.79,-113.81 92.89,-141.33 -0.95,42.37 -66.46,297.81 -114.9,353.53zm322.6 -340.27c21.25,-31.73 37.96,-9.09 0,0zm-70.71 -92.79l0 0zm-88.38 -57.46l16.99 -14.01 0.69 40.53 -17.68 -26.52zm88.38 57.46c3.29,-39.56 46.08,-105.91 67.57,-131.31 168.66,-199.26 549.32,-253.66 643.43,25.72 20.29,60.23 27.44,82.85 -0.73,113.22 -49.52,53.36 -78.11,14.16 -105.78,48.87 -17.11,21.48 -22.66,42.71 -34.42,67.22 -12.36,-9.06 -31.73,-51.55 -41.22,-69.25l-38.33 -72.15c-29.35,2.43 -67.81,19.65 -97.21,26.5l0 -114.88c38.51,8.96 121.34,53.41 157.87,80.76 13.18,9.85 35.28,30.25 49.83,34.12 0,-99.39 -23.99,-140 -76.16,-188.99 -103.78,-97.45 -333.68,-31.58 -420.65,81.07 -10.83,14.03 -20.43,21.64 -32.47,33.83 -13.04,13.18 -49.77,59.39 -71.73,65.27zm-808.7 1582.04c-20.29,4.72 -58.45,25.05 -71.88,38.59 -13.45,13.56 -10.41,15.47 -31.37,21.68 -13.7,4.03 -34.06,9.36 -47,10.43l0 8.85c19.06,1.58 28.1,8.38 48.61,8.83 -4.5,3.92 -1.3,2.39 -10.3,7.39 -7.52,4.18 -7.36,3.59 -15.59,6.5 -30.3,10.66 -62.76,27.58 -93.43,34.73 2.09,25.06 47.53,72.17 63.24,91.42 21.04,25.76 77.84,111.54 102.56,127.25 22.75,14.45 36.76,8.46 67.29,12.25 28.93,3.6 66.37,9.19 93.7,21.19 22.18,9.74 7.51,0.19 17.9,21.86l44.19 0c2.98,-35.72 18.29,-56.14 12.79,-105.56 -7.52,-67.51 -51.06,-109.41 -98.1,-149.4 -17.08,-14.51 -59.25,-40.57 -69.35,-54.38 30.42,-7.08 80.09,-7.71 106.35,-5.01 78.43,8.06 25.23,57.76 144.94,94.01 43.82,13.25 77.09,6.8 84.56,34.75 -10.08,2.34 -10.16,3.42 -22.09,4.41l0 17.68c25.05,5.85 41.16,21.43 70.7,22.1 33.3,-69.4 45.82,-197.66 -23.82,-250.16 -59.18,-44.62 -173.48,-54.76 -276.68,-54.76l0 -26.52c184.77,-43.05 178.21,-102.41 217.13,-123.14l74.55 -40.35c66.71,-44.31 176.28,-166.53 261.77,-80.61l25.46 31.98c-12.25,23.16 -11.41,27.22 -30.94,44.19 -26.52,-6.18 -27.36,-19.95 -53.03,-22.09 -24.11,22.87 -21.89,60.34 -35.35,88.38 78.59,52.63 208.36,64.51 207.97,-75.19 -0.32,-113.21 -98.58,-120.05 -180.39,-137.99 -12.46,-2.74 -24.16,-7.41 -40.84,-7.78l0 -8.83c16.27,-3.79 27.48,-12.11 44.91,-16.96 53.67,-14.98 116.91,0.45 161.38,22.78 48.67,24.47 131.66,104.92 147.24,109.08 5,-18.74 23.66,-37.82 34.53,-53.87 10.7,-15.81 26.5,-42.75 40.6,-52.2 1.19,14.36 20.62,74.58 27.5,82.99 11.02,13.46 56.12,26.64 73.34,37.13 50.65,30.83 109.98,86.55 133.37,92.01 17.86,-13.09 40.07,-56.02 48.13,-80.02 34.89,-103.97 -1.53,-219.03 -63.84,-302 -36.47,-48.55 -83.6,-98.43 -143.7,-117.03 -67.76,-20.94 -147.26,12.94 -229.47,12.94 17.05,-73.17 48.56,-9.18 35.35,-167.92 -16.98,3.94 -43.69,16.55 -58.87,25.08l-166.51 85.38c25.11,-107.73 74.99,-306.87 205.76,-333.37 68.41,-13.85 138.06,5.47 204.09,-8.04 7.12,-1.46 32.71,-8.7 39.48,-13.54 35.26,-25.17 13.31,-143.56 -64.76,-179.86 -53.24,-24.75 -131.87,-18.73 -186.34,-0.52 -125.82,42.04 -116.65,169.87 -207.06,230.43 0,-110.62 74.95,-210.51 151.57,-272.66 33.55,-27.22 94.93,-58.1 153.23,-59.03 63.28,-0.99 130.81,25.02 159.21,57.69 -5.32,22.84 -11.44,13.49 -13.26,35.35 20.16,4.7 27.16,8.84 53.03,8.84 8.61,-16.27 15.11,-21.13 24.75,-37.12 70.78,-117.42 11.75,-174.23 -81.97,-228.25 -14.02,-8.09 -25.8,-17.54 -44.42,-21.86 4.85,-20.84 20.08,-36.19 34.08,-49.9 18.13,-17.75 34.29,-24.43 63.27,-16.75 24.82,6.6 41.59,17.26 62.68,25.94 30.79,12.63 18.66,36.32 22.87,65.49 54.17,374.37 545.39,145.98 403.62,-209.17 -74.35,-186.27 -243.46,-273.09 -446.29,-232.2 -71.14,14.34 -201.23,65.44 -247.05,102.07 -65.11,52.02 -94.97,141.39 -171.58,181.93 0,-169.48 77.12,-152.03 83.96,-234.21l-83.96 -4.41c-122.7,-0.05 -260.15,27.2 -327.96,136.05 -18.27,29.37 -51.13,90.26 -52.09,133.51 -19.91,-13.34 -46.45,-56.76 -78.85,-39.45 -20.22,10.83 -47.33,53.65 -58.21,74.73l-59.91 134.53c-6.9,17.3 -11.97,32.37 -19.57,46.72 -52.15,-12.14 -118.41,-53.31 -167.93,-57.43 0,64.58 15.5,103.7 5.78,173.7 -3.92,28.22 -5.5,59.27 -9.02,83.85 -8.17,56.9 26.8,71.7 77.47,105.72 20.96,14.05 37.93,20.71 59.24,33.56 31.74,19.13 85.81,54.29 96.33,93.69 -39.63,-9.24 -104.63,-29.88 -144.16,-7.17 -28.01,16.08 -66.19,67.15 -81.22,95.55 -37.47,-25.11 -48.79,-42.4 -107.9,-77.71 -84.2,-50.3 -211.5,-62.97 -302.54,-32.23 -59.68,20.13 -103.89,41.64 -147.49,82.31 -10.73,10 -15.78,11.53 -26.65,21.96l-43.02 49.77c-89.79,117.74 -127.07,297.42 -21.03,405.68 46.08,47.02 172.77,113.8 275.74,83.24 80.83,-23.97 150.87,-125.72 254.88,-21.7 25.68,25.69 54.52,81.1 51.91,133.75 -2.44,49.31 -27.99,104.29 -50.62,135.28 -22.58,30.94 -158.13,181.7 -170.52,205.11 116.61,0 168.48,-91.95 255.44,-151.13 10.78,-7.33 17.86,-12.93 28.01,-20.58 25.17,-19.04 69.82,-42.11 86.77,-67.9 6.83,-10.41 5.92,-44.68 23.23,-78.43 9.96,-19.42 8.57,-69.88 21.95,-79.68 0,26.64 8.84,39.65 8.84,66.3l35.35 0c17.41,74.71 59.59,26.86 -31.54,140.79 -25.82,32.27 -24.5,35.62 -56.19,58.7 -16.1,11.72 -57.76,35.45 -66.94,47.97z"/>
   <path class="fil0" d="M1931.83 5992.74l48.61 0c-9.68,14.45 -17.51,13.76 -22.1,30.94 -13.47,-9.03 -17.66,-17.72 -26.51,-30.94zm-1639.5 -1626.69l0 -15.89c3.01,-141.92 88.96,-230.86 189.96,-297.48 38.41,-25.33 63.32,-37.01 111.05,-52.46 110.95,-35.92 214.36,-2.1 298.63,45.05 11.09,6.19 14.59,7.42 25.3,14.47 81.86,53.94 153.43,119.79 215.36,195.62 17.39,21.32 51.64,79.98 70.04,93.47l0.11 -66.35c-4.05,-75.12 -19.02,-95.87 -62.63,-149.54 -42.48,-52.24 -62.47,-73.04 -17.57,-76.21 120.62,-8.46 253.27,-7.26 344.21,76.59 43.64,40.26 93.83,125.01 93.83,188.99 33.72,-7.85 63.19,-31.85 97.22,-39.78 45.97,86.88 100.53,165.51 123.74,265.15 18.49,-8.86 143.78,-55.43 167.93,-57.45 0,21.93 -3.91,21.79 -4.57,44.06 -1.26,42.12 -4.3,90.28 1.35,131.5 6.88,50.13 4.91,122.5 -22.11,152.65 -9.29,10.38 -36.61,38.37 -47.16,45.64 -37.41,25.81 -91.78,19.13 -125.13,56.05l-36.6 51.8c131.82,0 128.15,-61.24 225.38,83.95 29.97,-7.99 187.98,-180.03 404.79,-117.53 130.38,37.56 237.09,127.54 290.36,253.17 85.42,201.49 -27.03,378.35 -212.05,409.33 -47.49,7.95 -77.13,-2.23 -115.8,-15.18 -93.3,-31.25 -112.93,-48.09 -221.47,-48.09 -13.77,20.55 -28.05,38.76 -39.9,61.72 -37.61,72.83 -28.32,161.5 12.47,226.44 43.02,68.5 98.48,128.33 149.81,190.45 7.77,9.42 15.94,18.02 19.03,29.58 -73.38,-38.83 -228.13,-141.89 -309.13,-190.22 -75.3,-44.93 -82.59,-102.35 -119.52,-172.14l-26.52 0c-5.15,10.73 -30.22,83.33 -29.49,92.23 0.71,8.67 13.44,30.61 18.96,42.02 18.62,38.5 64.6,21.4 113.37,72.25 13.73,14.31 42.22,52.47 47.41,71.9 60.61,5.04 94.45,67.91 119.32,114.89 52.8,0 67.61,17.35 101.64,35.36 -6.35,23.79 -123.02,166.11 -146.75,193.52 -34.22,39.55 -64.17,52.73 -112.44,25.84 -37.06,-20.67 -91.04,25.71 -98.76,54.63l-8.84 0c-6.05,-72.64 -23.29,-163.63 15.03,-219.19 37.74,-54.69 126.98,-80.1 144.06,-103.42 -15.83,-7.59 -100.86,-11.56 -120.24,-5.34 -12.96,4.17 -107.9,76.43 -165.14,100.02 -59.65,24.57 -74.19,29.66 -68.15,55.58 -18.1,4.21 -20.75,4.43 -44.19,4.43 -8.16,-30.55 -116.51,-137.36 15.14,-223.51 30.31,-19.84 78.97,-38.39 119.37,-48.55 38,-9.56 104.65,-19.61 148.31,-19.61 -9.91,-14.81 -24.84,-23.05 -33.2,-37.51 -8.99,-15.53 -12.5,-35.6 -19.83,-50.88 -85.59,41.07 -190.76,-64.47 -250.83,-120.36 -34.52,-32.12 -70.26,-62.84 -119.19,-75.27 -64.42,-16.36 -114.82,12.02 -151.44,36.54 2.41,28.91 25.32,58.4 48.61,70.71 8.9,-13.29 17.91,-26.22 22.1,-44.2 20.44,0.46 22.43,5.48 30.35,18.28 5.63,9.11 12.49,21.3 17.24,31.74 11.77,25.77 -6.74,43.3 -24.29,61.67 -55.62,58.19 -75.1,8.47 -138.2,3.22 -13.57,-58.26 -42.58,-144.39 5.32,-189.11 39.5,-36.9 157.13,-37.21 175.87,-62.78 -30.13,-7.02 -58.96,-21.79 -100.97,-17.13 -87.08,9.71 -182.78,56.39 -230.47,127.6 -24.77,-11.87 -39.12,-15.7 -61.87,-30.93 4.38,-16.38 8.29,-8.37 13.26,-22.09 -12.57,-8.43 -33.84,-20.5 -53.03,-22.1 -12.41,18.52 -25.41,51.63 -40.85,65.22 -15.02,13.22 -48.66,20.61 -68.89,32.73 -22.24,13.33 -40.5,25.44 -61.78,39.87 -39.87,27.03 -33.68,20.34 -45.01,47.79l-26.52 0c-2.35,-28.23 -25.02,-63.95 -33.87,-94.3 -9.41,-32.21 -18.68,-69.76 -14.16,-112.82 11.27,-107.49 116.94,-259.1 222.25,-285.96 72.07,-18.39 154.77,6.97 232.34,6.97 -39.45,-82.21 -48.99,-66.03 -39.77,-176.77 16.4,1.36 20.09,4.97 31.85,12.34l170.52 94.62c10.7,6.62 14.18,9.27 27.42,12.35 0,-105.11 -55.17,-234.29 -110.5,-282.79 -91.82,-80.48 -200.86,-66.3 -326.99,-66.3 -12.52,-26.09 -18.9,-80.51 -9.12,-115.18 31.52,-111.67 190.66,-96.24 265.51,-57.27 98.91,51.5 141.32,166.9 188.45,262.32l23.59 38.27c0,-177.71 -74.93,-271.9 -173.36,-352.51 -81.13,-66.44 -180.79,-103.83 -274.66,-15.96l-32.38 33.9c-9.62,11.34 -17.16,26.28 -27.81,34.07 -25.5,-17.08 -158.92,-185.44 5.84,-268.16 29.03,-14.56 71.13,-22.8 100.22,-36.76 -50.46,-95.37 -130.09,-67.58 -207.7,-26.51 0,157.18 -66.64,299.28 -226.02,252.54 -46.58,-13.67 -97.25,-45.15 -125.65,-82.05 -8.44,-10.97 -9.98,-11.84 -18.24,-21.54 -41.27,-48.41 -61.71,-105.76 -63.16,-175.92zm1630.66 1595.76c0,32.85 1.92,30.93 -30.93,30.93l0 -30.93 30.93 0zm-88.38 -26.51l17.67 0 -4.96 17.49 -8.29 0.19c-1.17,-13.69 0.05,-8.36 -4.42,-17.68zm-322.6 -357.96c7.76,-11.58 2.24,-9.12 17.68,-13.25 -4.53,16.94 -0.36,11.44 -17.68,13.25zm269.57 -70.69c0,-25.74 1.67,-51.32 22.1,-66.3 34.2,64.65 46.4,176.4 0,229.8 0,-61.75 -22.1,-123.78 -22.1,-163.5zm-181.19 13.25c7.55,-11.27 7.58,-13.81 22.1,-17.68 -4.21,15.8 -4.67,13.51 -22.1,17.68zm-57.45 0c4.09,-15.29 2.41,-13.59 17.68,-17.68 -5.35,20.03 -2.14,8.36 -17.68,17.68zm777.77 -79.55c21.82,-5.81 67.28,-50.63 92.81,-57.45l0 110.49c-16.88,-3.94 -33.95,-14.78 -48.61,-22.11l-35.38 -17.65c-13.84,-11.21 -1.88,-0.09 -8.82,-13.28zm-870.57 17.67c4.08,-15.27 2.4,-13.59 17.68,-17.67 -5.35,20.03 -2.14,8.36 -17.68,17.67zm-397.72 -4.42c16.79,-25.06 32,-3.34 0,0zm481.69 8.86l-8.84 0c0,-26.76 2.76,-37.47 4.42,-57.46 27.51,18.42 7.09,25.31 4.42,57.46zm583.33 -53.05c12.06,-18.01 64.05,-53.31 79.54,-57.45 0,37.91 -1.85,106.99 -8.84,137 -20.53,-23.62 -25.22,-35.74 -52.5,-57.98 -13.51,-11 -9.7,-5.47 -18.2,-21.57zm-676.13 -4.41c-10.45,-7.26 -8.84,3.37 -8.84,-35.36 0,-11.94 2.11,-12.17 4.41,-22.09 33.29,8.88 6.71,30.02 4.43,57.45zm344.69 -70.71c21.24,-31.73 37.96,-9.09 0,0zm-380.05 -26.52c-6.44,-26.89 -5.6,-9.59 0.76,-52.9 13.63,3.73 17.59,8.58 14.14,23.32l-14.9 29.58zm415.4 -35.35c2.53,-9.47 6.23,-21.26 14.1,-13.39 13.53,13.54 -7.71,6.19 -14.1,13.39zm-357.95 -101.64c47.07,34.5 27.18,103.06 26.52,132.58 -3.19,-3.65 -4.21,-4.76 -7.93,-9.75 -9.25,-12.38 -20.2,-29 -22.22,-44.36 -1.36,-10.29 3.63,-56.99 3.63,-78.47zm278.41 313.76c0,86.3 26.51,100.36 26.51,194.44l-36.24 -52.14c-58.13,-96.31 -105.17,-294.43 9.59,-376.63 19.09,-13.69 32,-16.23 53.17,-26.39 0,22.13 -7.71,45.49 -12.73,62.39 -15.84,53.3 -40.3,143.48 -40.3,198.33zm-357.95 -265.15c-14.25,-10.44 -5.7,1.6 -10.45,-20.47 -5.18,-24.1 -6.87,-53.35 14.87,-67.91 4.66,20.03 -4.42,53.1 -4.42,88.38zm53.02 -132.57c10.68,12.28 18.53,50.94 22.1,66.29 -8.78,-5.89 -12.24,-8.05 -22.1,-13.26l0 -53.03zm402.15 70.7c-2.26,-27.14 -4.42,-12.83 -4.42,-57.45 0,-16.05 5.24,-15.5 8.84,-30.93 13.8,10.11 8.68,29.63 3.44,65.31l-7.86 23.07zm123.73 -30.93c10.5,-39.3 108.85,-85.21 141.37,-97.26 29.38,-10.89 59.85,-17.3 95.9,-23.41 15.24,-2.6 33.99,-1.76 53.28,-4.39 28.53,-3.88 24.91,0.34 54.15,1.32 92.24,3.05 195.49,46.37 235.73,122.22 38.66,72.89 25.65,219.75 -2.62,230.21l-122.64 18.79c0,-17.81 -6.68,-94.24 -19.79,-103.95 -10.93,-8.11 -78.8,-24.22 -99.52,-24.22 -19.16,0 -70.47,49.88 -88.39,61.87l-11.94 -125.04c-13.27,-101.53 -7.89,-51.39 -23.41,-118.01l-212.12 61.87zm-556.81 -92.8c-10.17,-42.5 -0.79,-21.93 0,-57.45 14.07,3.75 17.98,11.03 15.12,24.48 -0.1,0.52 -5.25,12.46 -6.34,14.9 -0.76,1.68 -3.31,7.7 -4.13,9.41l-3.06 5.82c-0.32,0.63 -0.97,1.95 -1.59,2.84zm44.19 -163.51c7.76,-11.58 2.24,-9.13 17.68,-13.26 -4.52,16.94 -0.36,11.46 -17.68,13.26zm176.77 17.68c-9.91,-7.26 -30.93,-39.65 -30.93,-61.87 0,-17.9 59.45,-49.15 75.12,-57.45 -5.83,25.06 -37.86,92.13 -44.19,119.32zm-406.56 -251.9l0 -57.44 13.26 0c2.03,24.47 7.07,7.04 -0.89,29.75l-12.37 27.69zm-48.61 -101.64c4.28,-6.38 9.44,-22.45 17.89,-14.01 8.54,8.56 -8.22,11.7 -17.89,14.01zm340.27 -30.93c4.08,-15.27 2.4,-13.6 17.68,-17.67 -2.19,20.01 -2.23,11.68 -17.68,17.67zm-251.89 -35.34c43.14,28.87 86.33,117.74 101.69,176.72 21.61,82.89 30.88,141.48 30.88,247.5 -8.94,-10.27 -5.64,-6.26 -9.96,-20.96l-107.76 -347.4c-5.86,-19.9 -14.36,-33.92 -14.85,-55.86zm0 0l0 0zm-269.57 4.41c9.55,-35.72 57.95,-31.21 66.29,0 -32.26,-7.52 -31.07,0 -66.29,0zm212.12 -61.87c21.25,-31.73 37.97,-9.09 0,0zm-689.38 -26.52c32.22,-0.71 124.88,-63.27 155.5,-83.13 11.09,-7.18 40.12,-24.53 52.2,-27.33l0 114.88 -79.55 -30.93c-10.02,14.98 -80,124.42 -83.96,141.41l-44.13 -70.77c-19.85,-27.93 -24.51,8.16 -103.5,-46.74 -13.3,-9.24 -10.3,-11.2 -24.72,-15.06 1.09,-49.01 26.73,-120.78 51.53,-160.6 52.84,-84.8 148.69,-126.64 262.23,-126.64 190.95,0 409.58,159.13 450.75,335.85 -128.45,-86.01 -87.11,-161.16 -273.31,-230.47 -71.59,-26.65 -156.16,-47.22 -232.1,-9.79 -67.45,33.26 -130.94,132.48 -130.94,209.32z"/>
   <path class="fil0" d="M385.13 3495.93c9.52,-14.21 25.74,-32.49 38.65,-45.32 69.07,-68.69 63.17,-12.35 101.99,-70.35 9.19,-13.74 28.02,-40.83 31.71,-56.67 15.02,11 61.15,119.37 66.28,141.4 36.68,0 62.17,-21.3 97.23,-22.08l0 110.47c-15.33,-1.28 -133.86,-56.01 -154.63,-66.33 -11.4,-5.67 -40.63,-19.16 -53.07,-22.06 42.65,80.62 18.06,54.01 88.98,149.66 122.21,164.84 257.61,67.72 367.24,-33.71 17.85,-16.52 17.75,-11.95 44.33,-39.63 16.45,-17.11 22.74,-30.41 42.34,-46.04 25.54,-20.32 72.34,-73.24 93.46,-78.88 -8.49,36.44 -34.26,88.5 -52.99,114.93 -128.49,181.37 -387.07,296.26 -574.6,172.39 -66.97,-44.24 -115.98,-117.9 -136.92,-207.78zm574.49 -101.64c24.62,-46.51 62.08,-15.75 66.29,0 -13.84,-1.15 -15.01,-4.53 -29.7,-3.25 -9.95,0.88 -18.7,3.25 -36.59,3.25zm327.01 -66.29l0 0zm225.38 4.42c7.76,-11.57 2.24,-9.13 17.68,-13.26 -4.53,16.94 -0.36,11.45 -17.68,13.26zm-291.66 -83.95l0 -57.45c24.44,6.51 16.73,22.03 9.32,40.01 -2.77,6.7 -0.33,2.45 -4.01,9.47 -3.19,6.08 -2.18,4.35 -5.31,7.97zm446.33 -132.58c7.75,-11.58 2.24,-9.13 17.68,-13.25 -4.52,16.93 -0.36,11.43 -17.68,13.25zm-380.05 212.11c0,-26.89 15.3,-74.48 21.21,-98.1 9.85,-39.41 71.17,-271.41 71.6,-290.77 13.78,10.08 9.14,1.56 8.85,53 -0.38,67.75 2.33,99.18 -17.12,168.52 -9.42,33.57 -18.28,61.7 -32.87,90.86 -9.93,19.85 -36.72,66.48 -51.67,76.49zm309.35 -371.2c62.89,1.39 70.7,36.98 70.7,101.65 -27.01,-6.31 -41.96,-13.19 -61.87,-26.53 0,-30.08 0.19,-54.93 -8.83,-75.12zm-145.84 8.83c4.49,-16.83 10.86,-24.17 22.1,-8.83 -10.63,2.47 -13.96,3.95 -22.1,8.83zm-44.19 -119.31c-6.44,-26.9 -5.6,-9.61 0.76,-52.9 22.4,6.09 15.81,19.37 7.35,38.67 -0.44,1.01 -0.86,2.23 -1.32,3.22l-6.79 11.01zm-53.03 -92.81c3.67,15.74 8.84,38.63 8.84,57.45l-17.67 0c0,-11.91 -0.08,-17.82 1.61,-29.31l7.22 -28.14zm481.69 -75.12c13.46,-0.3 16.11,-2 26.51,-4.42 0,17.05 1.53,26.57 -2.98,41.22l-14.69 33.91c-3.45,-14.8 -8.84,-53.54 -8.84,-70.71zm-384.47 61.87c-0.6,-0.96 -1.1,-3.75 -1.27,-3.14l-7.56 -58.73c10.79,4.46 3.56,2.99 17.67,0 -0.43,19.52 -7.27,43.12 -8.84,61.87zm543.56 -4.42c21.33,1.77 68.08,20.51 91.13,28.18l66.57 22.47c2.88,0.93 2.45,1.55 9.45,2.74 18.47,3.13 19.66,-13.35 22.26,-23.05 9.31,-34.64 11.37,-64.22 14.2,-100.71 3.43,-44.02 9.27,-97.76 12.92,-141.74 2.46,1.63 71.8,83.95 123.74,83.95 67.68,0 83.96,-84.07 83.96,-154.66l132.58 13.25c4.75,57.08 97.4,204.23 -59.25,298.71l-157.17 77.16c-24.54,12.66 -55.94,3.98 -96.99,-0.59 -81.93,-9.12 -197.96,-37.85 -243.4,-105.71zm-609.84 -39.78c-10.21,-7.48 -13.26,-12.32 -13.26,-48.61 0,-21.58 4.65,-31.05 17.68,-39.77 4.66,20.03 -4.42,53.1 -4.42,88.38zm79.54 -35.35c0,-39.84 4.42,-66.73 4.42,-101.64l14.82 24.97c23.68,47.36 15.16,37.11 -19.24,76.67zm366.79 -110.48c23.1,5.39 7.54,1.95 30.93,0l0 48.63c-3.17,-3.67 -4.18,-4.72 -7.91,-9.76l-23.02 -38.87zm-424.24 22.1c-10.17,-42.49 -0.79,-21.93 0,-57.45 14.07,3.76 17.98,11.03 15.12,24.49l-15.12 32.96zm415.4 -79.53l0 13.25c-12.92,-3.09 -6.36,0.56 -13.26,-8.84 5.96,-3.34 4.89,-2.42 13.26,-4.41zm-494.94 8.82l16.69 -18.64c-0.47,18.53 0.5,16.85 -16.69,18.64zm494.94 -8.82l0 0zm-318.18 17.66l-8.84 0c0,-36.55 -5.91,-50.5 13.26,-57.44 12.23,21.76 -2.34,32.43 -4.42,57.44zm-83.96 -39.77c8.44,-12.6 12.34,-18.83 17.67,-13.26 4.62,11.8 2.8,11.13 -17.67,13.26zm777.77 -106.06l0 114.91 -167.93 -35.37c12.81,-11.13 25.14,-13.65 42.51,-19.35 57.71,-18.91 73.52,-25.44 125.42,-60.19zm-839.64 75.12c9.89,-14.76 10.73,-19.93 22.1,-4.4 -10.07,2.34 -10.23,3.16 -22.1,4.4zm-154.67 0c8.45,-12.6 12.34,-18.82 17.68,-13.25 4.61,11.8 2.79,11.13 -17.68,13.25zm322.6 -22.08c0,-26.77 2.76,-37.45 4.42,-57.45l8.84 0c4.26,17.79 8.81,14.23 -0.88,38.9 -4.19,10.67 -4.14,12.51 -12.38,18.55zm-75.13 -39.78c7.76,-11.57 2.24,-9.14 17.68,-13.26 -4.52,16.94 -0.36,11.46 -17.68,13.26zm963.38 70.71l-92.81 -48.62c3.43,-12.83 8.78,-17.79 16.41,-27.78 45.37,-59.46 10.93,-34.09 102.91,-34.09 -1.36,16.38 -21.04,99.07 -26.51,110.49zm-641.73 -145.76c-0.24,-16.71 31.89,-38.75 31.89,-66.37l0 -88.38 26.51 0 0 229.8c0,18.45 -15.34,13.27 -53.03,13.27l-5.37 -88.32zm-228.85 17.6c4.09,-15.28 2.41,-13.6 17.68,-17.68 -5.35,20.05 -2.14,8.38 -17.68,17.68zm203.29 30.93c0,104.59 11.79,123.55 32.81,219.08 4.23,19.19 10.93,39.47 11.38,59.33 -13.3,-3.55 -40.61,-24.22 -49.78,-34.18 -142.81,-155.15 -24.61,-408.07 27.68,-443.08 0,36.86 -0.25,73.74 0.13,110.62 0.67,63.31 -22.22,39.91 -22.22,88.23zm-313.76 -4.4c-14.41,-3.86 -6.16,-0.24 -15.44,-11.1 -5.53,-6.47 -7.12,-9.52 -11.08,-15.43 11.09,-16.56 17.07,-30.75 26.52,-48.6l26.51 0 -26.51 75.13zm194.44 -119.32l0 0zm145.83 -141.43l26.52 0 0 57.45 -26.52 0 0 -57.45zm-145.83 141.43c11.58,-17.3 62.18,-88.57 75.13,-97.24 -4.06,17.41 -9.54,52.61 -16.18,67.8 -7.83,17.88 -37.18,27.63 -58.95,29.44zm207.7 -92.81l0 -44.19c13.66,9.14 9.82,13.22 26.51,17.68 -4.7,17.59 -12.27,16.98 -26.51,26.51zm-67.29 -76.14l1 23.11 -22.09 0 21.09 -23.11zm-87.38 -29.92l23.1 21.09 -23.1 1 0 -22.09zm216.53 -137c-14.44,-3.86 -19.14,-11.09 -26.51,-22.08 5.95,-22.28 11.73,-8.66 17.68,-30.94 15.02,4.01 14.61,10.92 22.1,22.09 -5.55,10.47 -10.26,18.02 -13.27,30.93zm-128.15 -313.75c0,63.48 5.42,90.55 54.86,126.32 23.62,17.09 76.77,44.31 90.97,63.71 -158.37,0 -79.71,35.19 -289.01,-104.3 -11.14,-7.41 -20.07,-12.58 -29.46,-19.27 -15.94,-11.36 -16.83,-12.88 -12.96,-31.11 -47.98,-3.99 -44.58,-9.59 -77.73,50.43 -98.36,178.12 133.79,221.2 260.79,243.77 20.55,3.67 39.14,9.36 55.57,10.72l-4.79 4.04c-3.72,2.91 -3.83,3.06 -7.56,5.7 -49.46,35.05 -99.32,78.25 -155.64,100.68 -42.44,16.9 -77.1,45.72 -112.34,73.26 -18.68,14.6 -33.25,28.06 -51.05,41.75 -132.94,102.2 -229.85,37.93 -229.85,22.05 0,-23.08 15.97,-57.45 48.61,-57.45 7.89,0 23.04,13.77 39.77,17.67 16.45,-24.56 17.68,-63.41 17.68,-97.22 -11.63,-7.79 -22.1,-14.24 -34.1,-23.35 -44.15,-33.5 -69.07,-20.11 -115.92,1.48 -16.35,7.53 -8.52,-0.8 -15.54,15.4 -8.35,19.26 -20.04,77.64 -20.04,103.69 0,92.82 78.73,119.28 148.41,147.67 6.6,2.69 10.52,4.26 15.24,6.86l5.53 3.31c8.22,5.32 3.15,1.81 7.58,5.67 -79,18.4 -201.49,-22.16 -255.38,-76.06 -22.91,-22.91 -30.03,-41.25 -45.12,-69.78 -73.86,49.46 -41.31,82.33 -114.9,83.98 -14.96,-64.23 -57.21,-72.25 -107.48,-100.24 -32.73,-18.22 -102.35,-68.98 -139.99,-72.12 -25.4,52.93 -30.93,130.1 -30.93,190.03 0,112.42 134.1,300.49 260.73,300.49 72.01,0 123.07,-22.08 194.44,-22.08 -21.19,40.05 -53.03,69.71 -53.03,119.32 0,54.18 9.99,66.27 48.61,66.27 11.52,0 13.6,-8.41 22.82,-16.95 25.65,-23.78 141.67,-97.68 167.2,-111.19 0,89.96 -39.9,190.24 -77.67,244.92 -96.66,139.98 -241.31,104.18 -359.82,104.18 -27.94,58.24 -19.8,148.41 36.05,184.9 55.78,36.45 141.88,28.46 205.22,3.35 69.62,-27.61 119.32,-102.64 152.05,-166.12 8.21,-15.91 15.27,-26.11 23.61,-42.69 10.9,-21.66 34.9,-65.55 51.5,-76.65 0,57.69 -21.19,160.52 -48.74,207.57 -88.59,151.26 -209.22,223.31 -389.45,151.06 -35.57,-14.24 -77.7,-50.66 -109.79,-58.13 -20.01,85.87 -68.56,176.4 32.7,236.88 30.98,18.5 73.96,46.68 108.72,54.77 -14.13,21.1 -64.59,72.49 -93.33,73.79 -25.11,1.14 -85.51,-47.6 -109.96,-60.53 0,-68.85 -12.09,-124.7 -36.77,-170.92 -47.99,-89.84 -155.67,-98.45 -238.79,-56.03 -76.72,39.17 -148.67,131.1 -148.67,222.53l0 53.04c0,126.67 107.36,263.62 214.97,315.33 166.09,79.78 422,20.05 541.36,-129.08l91.48 -111.8c15.78,-19.83 37.3,-34.01 58.11,-47.94 0,29.5 -25.72,124.06 -37.09,144.09l-73.39 112.23c91.69,2.03 153.64,19.21 254.38,-6.37 81.25,-20.61 138.18,-59.54 177.3,-132.03 14.07,-26.06 32.33,-84.1 32.33,-122.35 26.19,13.86 79.12,55.22 106.06,57.46 6.2,-74.54 77.93,-134.28 110.48,-273.99 26.14,6.09 50.82,25.48 73.72,36.75 24.91,12.27 68.6,7.44 103.05,7.44 -3.34,-40.05 -19.62,-84.9 -19.76,-123.78 -0.13,-39.35 41.23,-137.99 7.93,-178.15 -6.19,-7.45 -28.48,-22.12 -37.41,-28.88 -66.22,-50.15 -212.62,-84.67 -220.33,-177.39 21.7,14.54 40.38,27.19 64.29,41.77 60.68,36.99 99.58,6.63 148.57,-32.19 17.69,-14.02 33.29,-46.78 39.03,-71.45 23.13,15.49 39.88,33.44 64.48,50.43 90.7,62.64 173.78,68.89 293.47,68.89 56.8,0 106.65,-8.07 149.75,-22.59 9.8,-3.29 17.83,-5.96 28.98,-10.79 70.17,-30.42 119.41,-85.26 151.25,-153.67 37.76,-81.14 41.57,-197.23 10.89,-281.98 -14.75,-40.72 -26.24,-60.02 -49.79,-91.61 -79.07,-106.12 -229.53,-125.08 -353.56,-32.14 -39.26,29.42 -77.34,27.33 -119.63,1.55 -14.06,-8.59 -40.17,-22.85 -51.07,-32.9 -19,-17.51 -36.39,-98.58 -36.39,-135.96 0,-183.65 170.45,-264.74 203.28,-313.75 -100.04,0 -120.43,10.33 -166.53,67.68 -29.23,36.33 -58.33,56.52 -101.35,75.4 -25,10.98 -12.63,15.87 -32.62,29.25l0 -22.09c-68.14,18.2 -86.87,189.65 -154.67,88.38 19.32,-22.22 36.37,-43.79 55.54,-68.2 53.53,-68.15 55.57,-76.45 130.01,-126.29 18.71,-12.54 63.73,-33.96 88.44,-39.72l0 -13.26c-9.14,0 -18.58,0.63 -26.52,-4.42 19.81,-4.61 33.85,-15.71 57.45,-17.66 2.35,10.06 3.43,10.16 4.42,22.08 17.04,-3.96 22.1,-5.55 26.51,-22.08l-26.36 -5.11c5.89,-8.34 21.84,-20.24 32.15,-28.88 15.33,-12.85 22.74,-15.5 33.99,-32.31 -8.41,-9.68 -15.81,-17.14 -24.66,-28.38 -9.23,-11.73 -15.93,-21.19 -25.27,-32.16 -5.17,-6.07 -7.86,-7.81 -12.97,-13.56 -32.22,-36.16 -60.42,-73.58 -95.09,-108.19 -105.77,-105.59 -61.51,-16.57 -107.16,-16.57 -48.91,0 -67.66,-35.25 -106.06,-44.19 -2.98,35.87 -8.84,63.92 -8.84,106.06z"/>
   <path class="fil0" d="M5263.86 3425.22l38.09 -67.97c16.8,-32.28 18.09,-20.41 138.68,-20.41 50.93,0 105.98,13.12 144.04,28.31 108.61,43.38 105.43,124.32 48.54,217.3 -33.44,54.64 -77.35,93.17 -128.78,131.96 -113.62,85.69 -296.61,170.4 -443.85,170.4 -124.87,0 -252.48,-14.81 -337.69,-99.79l-4.33 -4.51c-104.53,-112.11 -10.99,-293.93 166.28,-332.17 23.23,-5.01 38.12,-4.08 63.56,-7.5 20.78,-2.79 36.52,2.07 63.57,2.07 -5.14,22.05 -15.24,42.51 -23.99,64.38 -36.62,91.58 -59.98,155.46 -59.98,258.21 0,103.8 180.37,49.26 189.01,38.76l22.14 -101.6c9.4,-37.04 56.39,-146.89 71.68,-175.8 20.02,5.35 70.37,63.15 81,82.51 27.47,50 29.48,59.99 29.48,134.03 14.83,-5.37 26.57,-37.53 31.57,-52.38 22.8,-67.65 15.06,-129.95 -20.07,-188.91 -19.29,-32.36 -68.48,-76.23 -68.95,-76.89zm-1445.06 -972.2c0,162.14 201.86,219.11 281.85,140.43 36.26,-35.66 67.23,-111.75 40.75,-166.95 -23.34,8.46 -25.47,35.67 -72.55,46.78 -79.68,18.81 -134.84,-25.99 -78.47,-96.16 53.14,-66.15 151.93,-110.24 234.03,-132.76 129.83,-35.6 273.67,-66.9 401.65,2.39 140.65,76.16 209.14,228.58 209.14,387.45 0,140.89 -49.08,288.8 -128.13,393.33l-44.21 53c-24.78,29.7 -53.63,56 -84.57,78.94 -42.76,31.73 -88.69,61.19 -138.94,82.02 -101.88,42.23 -206.01,73.26 -337.72,73.26 -126.82,0 -240.23,-27.92 -319.42,-109.25 -107.84,-110.75 -5.21,-292.62 163.76,-333.66 41.28,-10.03 81,-7.84 133.56,-7.84 -5.46,65.58 -83.96,162.59 -83.96,322.59 0,55.04 26.76,70.7 79.54,70.7 30.81,0 89.24,-10.92 106.4,-21.74 20.64,-13.03 20.89,-75.03 28.01,-100.16 18.65,-65.89 72.84,-185.51 73.29,-187.43 65.05,34.42 128.8,142.31 110.48,220.95 28.75,-7.67 82.26,-136.3 11.52,-241.31 -20.54,-30.49 -39.65,-57.22 -68.97,-76.85l41.63 -77.7c8.63,-14.44 14.03,-24.71 22.72,-39.15 8.98,-14.89 16.01,-25.06 23.83,-38.03l70.07 -111.12c32.13,-49.58 57.38,-104 88.79,-154.74 11.13,-17.97 8.68,-18.35 -4.62,-38.1 -23.52,-34.97 -95.94,-106.81 -140.78,-106.81 -59.46,0 -110.6,109.48 -136.79,154.86 -30.33,52.54 -116.88,203.61 -136.58,252.31 -9.71,24.03 -20.1,44.03 -31.55,65.66 -28.04,0 -36.9,-4.42 -66.29,-4.42 -86.7,0 -150.98,4.12 -230.38,30.35 -44.25,14.62 -85.05,40.7 -121.9,68.12 -67.71,50.4 -147.08,139.12 -147.08,232.98 0,85.15 16.78,134.79 76.14,193.41 124.28,122.77 362.69,155.69 542.54,155.69 237.14,0 308.84,-8.42 522.54,-78.46 26.38,-8.64 44.54,-18.22 69.01,-28.2 113.86,-46.5 170.2,-112.41 207.23,-124.22 77.96,-24.86 74.84,-81.65 108.91,-129.72 13.28,-18.73 23.93,-36.82 36.14,-56.66 31.79,-51.63 55.54,-106.14 74.23,-164.4 11.29,-35.15 -4.42,-50.28 113.24,-50.28 92.38,0 173.53,9.22 248.98,47.12 207.56,104.25 80.23,258.02 -74.05,322.26 -24.68,10.27 -68.73,30.55 -95.38,32.78 34.2,-64.65 79.16,-122.82 112.42,-188.45 10.92,-21.55 1.38,-33.38 -12.01,-48.97l-78.28 -71.98c-34.59,-24.89 -74.3,-45.62 -113.26,6.15 -62.91,83.58 -112.82,184.21 -161.08,276.42 -4.66,8.9 -12.24,20.41 -18.25,30.35 -24.11,39.89 -43.5,87.65 -65.4,129.04 -98.74,0 -125.45,-29.3 -275.72,20.37 -59.25,19.58 -102.87,41.94 -146.59,78.78 -146.51,123.5 -197.97,309.9 -22.19,442.58 148.65,112.19 396.56,125.56 599.17,125.56 203.47,0 417.27,-66.68 550.94,-138.45 105.12,-56.43 210.87,-141.93 270.83,-246.2 78.45,-136.42 33.97,-259.33 -104.35,-328.34 -74.04,-36.96 -175.12,-60.36 -284.34,-60.36l5.58 -3.24c25.25,-11.46 89.45,-26.44 126.42,-41.51 178.31,-72.7 309.33,-247.18 111.76,-393.44 -139.23,-103.08 -423.71,-114.4 -606.93,-88.49 -21.63,3.07 -38.4,8.13 -56.65,9.64 11.86,-50.94 0.93,-121.26 -10.56,-166.2 -30.39,-118.82 -90.73,-214.78 -184.88,-292.39 -28.36,-23.38 -64.38,-44.44 -96.36,-62.74 -103.02,-58.92 -269.8,-88.51 -388.75,-88.51 -194.72,0 -413.34,38.28 -557.68,131.72 -26.08,16.87 -52.97,32.06 -75.48,52.66 -44.37,40.63 -96,100.89 -96,164.74z"/>
   <path class="fil0" d="M8609.14 3509.18l0 0zm-57.44 -83.96c11.94,8.75 11.18,14.58 19.55,29.06 7.12,12.31 13.21,22.34 20.22,32.82 -13.88,-3.25 -30.98,-15.1 -44.19,-22.11 1.42,-17.04 4.42,-17.4 4.42,-39.77zm57.44 83.96c16.74,8.87 22.03,13.04 36.74,25.15 12.43,10.22 22.71,16.75 35,26.86 62.72,51.63 155.49,123.99 246.26,124.95 162.25,1.7 252.08,-85.97 252.08,-247.66 -40.08,21.2 -48.1,41.48 -144.36,89.86 -18.9,9.5 -37.54,16.06 -54.51,25.04l-8.83 -110.47c15.75,1.3 77.77,28.13 92.79,35.35l70.71 -154.67c15.39,11.28 23.65,39.93 33.87,58.93 27.75,51.52 29.65,2.86 123.68,70.76 25.38,18.34 14,44.54 7.86,75.48 -21.34,107.35 -85.24,173.68 -179.15,205.33 -147.98,49.85 -323.12,-4.1 -438.1,-104.5 -22.66,-19.77 -71.05,-84.5 -74.04,-120.41zm-172.17 -83.41c4.08,-16.47 0.23,-12.36 17.51,-13.79l0 8.82 -17.51 4.97zm304.75 -40.31c1.16,13.68 -0.05,8.36 4.42,17.67 -17.18,-1.42 -40.28,-7.4 -57.45,-8.84 8.99,-5.71 39.94,-8.83 53.03,-8.83zm-592.17 -17.68l-8.83 0c0,-8.87 -0.81,-22.47 0.15,-30.79 2.49,-21.61 8.4,-20.34 13.11,-22.24 12.37,22.02 -2.59,31.46 -4.43,53.03zm287.25 -159.09c7.75,-11.58 2.24,-9.14 17.68,-13.26 -4.52,16.93 -0.36,11.45 -17.68,13.26zm-110.48 -163.51c24.13,17.68 59.07,106.71 70.19,141.93l40.29 176.24c-33.69,-8.99 -78.56,-84.67 -90.08,-122.03 -17.78,-57.66 -20.4,-122.42 -20.4,-196.14zm-300.5 44.19c11.96,-51.34 -4.96,-92.28 79.54,-136.98 0,35.1 1.95,71.79 -14.23,91.81 -9.95,12.31 -49.46,40.93 -65.31,45.17zm163.51 -92.79c4.08,-15.29 2.4,-13.6 17.67,-17.69 -5.35,20.03 -2.14,8.36 -17.67,17.69zm101.64 -35.37c0,-17.52 6.39,-33.45 14.7,-47.16l7.39 -10.29c1.78,21.36 4.55,33.68 4.33,61.96 -0.22,28.36 4.51,36.16 4.51,61.79 -0.68,-0.79 -1.76,-3.06 -2.04,-2.38 -0.02,0.04 -28.89,-33.4 -28.89,-63.92zm-39.78 -150.25c4.08,-15.27 2.41,-13.6 17.68,-17.67l0 13.27c-7.23,0.6 -13.74,-0.02 -17.68,4.4zm-216.53 -30.93c1.99,-2.97 3.19,-6.41 7.25,-10.42 6.87,-6.81 0.28,-3.59 10.43,-7.25 -2.19,20.02 -2.23,11.67 -17.68,17.67zm297.17 -61.77l16.59 61.77c-9.85,-5.2 -13.31,-7.37 -22.1,-13.26l5.51 -48.51zm-633.03 17.58l0 0zm30.94 -22.1l0 0zm106.06 -44.18l22.09 0 0 66.28c-9.37,-10.77 -8.22,-16.36 -12.78,-31.41 -4.39,-14.48 -7.16,-18.13 -9.31,-34.87zm-106.06 44.18l100.56 -102.71 1.08 54.1 -101.64 48.61zm565.65 -48.61c0,-26.7 -0.57,-36.03 4.42,-57.45l8.83 0c5.96,22.47 4.21,44.66 -13.25,57.45zm-596.59 70.71c-30.27,45.2 -101.97,77.43 -163.49,92.81 -183.62,45.94 -359.55,-15.08 -399.01,-219.69 -8.62,-44.7 -7.05,-73.74 -3.14,-120.59 43.6,-3.63 95.43,-29.9 141.41,-30.94 7.01,30.11 12.19,125.84 59.18,139.7 44.91,13.25 125.96,-32.61 152.94,-46.9 0.75,33.89 17.58,77.51 24.23,112.97 6.46,34.41 -10.98,84.4 -10.98,125.68 14.62,-7.03 180.62,-52.63 198.86,-53.04zm517.04 -132.58l-8.84 0c-2.5,-30.12 -16.03,-68.77 13.26,-88.38 5.87,25.19 -4.42,50.74 -4.42,88.38zm-366.79 -70.7c9.89,-14.77 10.73,-19.94 22.1,-4.42 -10.07,2.36 -10.22,3.19 -22.1,4.42zm-366.78 -30.94c4.89,-9.24 6.03,-21.45 14.22,-13.26 11.42,11.42 -5.69,9.95 -14.22,13.26zm676.12 -30.93c7.76,-11.57 2.24,-9.14 17.68,-13.26 -4.52,16.94 -0.36,11.45 -17.68,13.26zm-623.1 -70.71c29.31,0.67 89.7,28.11 123.74,30.94l-119.32 13.25c-24.58,0 -4.93,-21.16 -4.42,-44.19zm746.84 8.84c7.75,-11.56 2.23,-9.13 17.68,-13.26 -4.53,16.94 -0.36,11.46 -17.68,13.26zm-375.63 30.93l-8.84 0c-5.14,-19.25 -30.93,-44.7 -30.93,-61.86 0,-8.81 13.96,-30.2 17.83,-44.04 4.67,-16.62 8.68,-36.22 8.68,-57.6 14.95,10.94 35.36,56.98 35.36,83.97 0,30.85 -16.45,55.3 -22.1,79.53zm684.97 -57.44c8.67,-37.25 46.15,-34.49 66.29,-4.42 -18.35,-0.41 -16.59,-4.69 -32.8,-1.91 -17.94,3.06 -13.46,5.88 -33.49,6.33zm-402.14 -4.42c7.75,-11.57 2.23,-9.14 17.67,-13.26 -4.52,16.94 -0.36,11.46 -17.67,13.26zm-61.87 0c7.75,-11.57 2.23,-9.14 17.67,-13.26 -4.52,16.94 -0.36,11.46 -17.67,13.26zm-839.64 -39.78c27.04,6.31 21.57,6.31 48.61,0 11.27,21.3 22.94,34.49 35.35,53.05 -24.09,5.6 -37.76,20.88 -61.86,26.51 -6.02,-12.55 -19.92,-62.59 -22.1,-79.56zm194.45 8.86c7.75,-11.59 2.23,-9.15 17.67,-13.27 -4.52,16.93 -0.36,11.45 -17.67,13.27zm1197.58 -26.53c3.88,-14.52 6.41,-14.54 17.68,-22.09 5.33,25.16 2.52,12.08 -17.68,22.09zm-583.32 0c4.49,-16.82 10.85,-24.18 22.09,-8.84 -10.63,2.48 -13.96,3.96 -22.09,8.84zm-167.93 -163.51c65.57,43.92 157.2,315.37 23.27,438.67 -11.56,10.63 -38.25,30.47 -54.21,34.18 2.9,-34.74 46.37,-173.28 48.67,-220.91 4.53,-94.17 -17.73,-163.65 -17.73,-251.94zm0 0l0 0zm83.96 -128.15l0 22.09 -17.68 0c3.88,-14.52 6.41,-14.55 17.68,-22.09zm-88.38 -39.77c15.67,23.41 54.63,47.36 57.59,74.98 1.18,11.04 -0.14,32.17 -0.14,44.34 -21.5,-5.01 -31.54,-17.1 -53.03,-22.11 0,26.76 -2.76,37.46 -4.42,57.45l-30.94 0c-4.59,-19.73 -42.47,-91.34 -54.37,-113.54 -10.94,-20.43 -39.57,-44.9 -56.11,-67.63 -9.07,-12.45 -13.58,-11.19 -17.67,-26.53 -17.27,1.44 -13.42,-2.67 -17.68,13.26 -26.56,-0.58 -49.98,-20.92 -67.59,-34.04 -86.34,-64.32 -60.38,-102.94 -206.39,-102.94 26.46,39.5 135.05,127.55 176.85,207.61 35.49,67.97 38.25,150.24 0.22,225.76 -8.82,17.51 -7.67,13.76 -24.77,23.85 -13.56,8.02 -16.97,10.3 -32.22,16.39 -131.76,52.58 -154.86,-61.23 -296.88,-53.85 -109.4,5.7 -184.57,69.4 -222.88,166.03 -56.76,143.21 -47.74,331.24 89.37,422.72 155.98,104.08 398.93,49.46 550.24,-12.98 44.89,-18.52 50.56,3.68 124.99,49.24 21.95,13.45 36.72,27.19 63.73,33.49 18.1,-12.12 34.4,-27.59 56.08,-36.72 21.89,-9.24 48.32,-15.19 72.08,-20.72 -9.51,40.79 -65.1,79.06 -100.22,98.63 -23.8,13.25 -44.63,20.13 -69.23,32.41 -27.99,13.98 -103.74,52.87 -113.31,85.56 -16.67,57 4.49,128.33 4.47,189.86 -0.02,38.42 -4.54,58.81 -4.54,97.31 114.08,0 58.06,2.7 125.46,-24.79 13.77,-5.61 26.05,-10.2 42.47,-10.56l121.02 242.21c28.23,-6.13 61.16,-27.53 91.1,-34.52 2.95,35.49 39.02,102.29 54.53,131.09 66.41,123.32 191.04,149.17 325.28,138.26 26.81,-2.18 54.09,-8.6 84.2,-8.6 -2.34,-28.07 -26.64,-51.77 -44.63,-70.27 -48.6,-49.95 -34.91,-45.35 -34.91,-159.54 35.65,23.88 78.04,82.27 114.89,110.49l75.13 61.87c150.32,112.43 351.49,204.61 519.63,77.7 145.17,-109.57 243.38,-335.98 128.81,-496.36 -74.39,-104.13 -267.54,-169.43 -345.1,-15.99 -16.12,31.88 -26.35,63.99 -32.09,100.48 -10.09,64.22 7.67,51.48 -49.42,87.56 -15.89,10.04 -41.89,27.17 -66.89,25.88 -42.79,-2.22 -78.51,-55.85 -97.49,-84.2 101.41,0 206.04,-71.44 185.15,-180.7 -7.39,-38.73 -23.57,-59.1 -39.32,-88.87 -33.95,0.75 -66.59,28.78 -88.34,44.24 -111.72,79.4 -183.55,56.26 -281.5,-23.52 -99.1,-80.7 -178.14,-178.78 -178.14,-356.58 21.58,15.82 86.88,162.49 152.16,245.57 11.11,14.15 54.53,65.66 64.8,72.2 16.29,10.38 393.04,77.95 251.48,-189.61l-92.84 4.45c-79.19,0.4 -169.95,-22.04 -224.33,-76.17 -42.37,-42.15 -54.34,-59.56 -82.11,-116.76 -15.43,-31.79 -38.22,-116.04 -38.22,-160.62 20.41,5.44 40.69,23.45 58.31,34.47l118.66 75.8c15.51,9.28 45.63,31.28 61.66,35.55 5.24,-22.49 13.5,-103.55 9.35,-119.53 -6.68,-25.65 -43.95,-57.25 -57.96,-83.74 142.66,0 174.02,115.28 365.69,-76.23 22.45,-22.45 41.38,-41.59 57.13,-71.02 74.29,-138.94 8.03,-241.71 1.42,-321.19 -81.65,6.79 -244.66,112.02 -251.89,198.87l-8.84 0c-3.42,-12.83 -24.97,-46.19 -33.56,-59.25 -13.85,-21.07 -24.01,-40.45 -37.15,-60.07 -21.09,14.12 -40.13,45.67 -61.2,62.52 -24.17,19.36 -44.54,36.57 -71.51,52.24 -45.72,26.54 -116.82,44.44 -172.49,44.91 -22.17,0.17 -17.9,1.95 -26.23,-9.41 34.66,-8.09 131.99,-67.47 157.89,-89.59 103.66,-88.52 -16.01,-209.09 -79.02,-215.19 -38.63,-3.74 -58.19,28.49 -70.16,52.76 -47.64,96.6 65.16,36.87 88.51,137.11 -73.53,38.91 -124.98,42.65 -199.8,-7.88 -63.03,-42.58 -116.2,-101.05 -187.77,-130.44 -42.64,-17.5 -42.94,-22.78 -67.6,-69.38l-57.45 26.52z"/>
   <path class="fil0" d="M6925.46 4768.64c-13.09,-27.27 -13.27,-56.72 -13.27,-97.22 39.84,9.28 33.65,2.71 66.29,0 -9.79,42.02 -16.37,94.17 -53.02,97.22zm-388.89 -30.93c-13.87,-20.71 -8.84,-17.18 -8.84,-66.29 0,-34.57 9.68,-103.22 17.09,-137.57 4.58,-21.27 9.6,-20.99 13.84,-39.2 62.82,0 57.45,43.2 57.45,97.22 0,29.03 -12.98,65.62 -24.52,85.96 -12.63,22.26 -29.97,53.2 -55.02,59.88zm-689.39 -17.67c0,-36.91 1.85,-225.39 39.78,-225.39 80.36,0 49.89,165.19 -5.54,228.84 -9.6,11.01 -34.24,22.97 -34.24,-3.45zm-1780.91 17.67c-10.6,-45.53 -7.99,-80.09 -0.79,-128.95 8.09,-54.82 7,-114.11 44.98,-114.11 26.04,0 39.78,43.37 39.78,70.71 0,40.26 -10.35,76.63 -22.59,105.57 -9.26,21.86 -34.68,64.57 -61.38,66.78zm888.25 26.52c-6.19,0 -15.3,-10.46 -19.18,-16.18 -25.92,-38.21 -12.26,-120.47 -11.76,-142.92 44.26,-3.67 100.6,-59.09 101.65,-106.06 13.63,9.14 17.59,15.64 35.74,21.7 40.19,13.42 39.38,-13.77 39.38,53.43 0,15.96 -5.01,17.47 -11.3,28.47 -20.54,35.93 -71.89,161.56 -134.53,161.56zm-494.94 0c-39.56,-74.75 27.6,-372.17 76.95,-271.41 32.15,65.63 -11.69,201.95 -51.95,256.64 -8.31,11.28 -8.69,13.4 -25,14.77zm2457.04 -282.82c31.19,0 49.52,50.17 56.68,75.89 6.54,23.48 4.1,33.82 5.91,61.32 0.63,9.63 14.62,26.29 -36.08,26.29 -57.13,0 5.23,-66.28 -70.71,-83.97 0,-34.85 11.86,-79.53 44.2,-79.53zm-1988.62 97.21c1.91,-22.93 10.48,-50.92 19.1,-69.28 4.81,-10.27 8.96,-19.65 14.48,-29.72 8.92,-16.23 10.11,-15.9 32.71,-15.9 14.76,63.37 -23.91,105.02 -66.29,114.9zm-251.89 -83.97l0 0zm419.82 -17.67l0 0zm0 0c-12.36,-4.48 -11.75,-4.07 -13.25,-22.1 10.81,7.93 9.51,6.02 13.25,22.1zm-419.82 17.67c0,-61.75 44.6,-203.79 79.73,-264.96 19.58,-34.09 28.99,-53.22 61.69,-53.22 44.67,84.43 -16.57,195.36 -76.18,259.69 -12.58,13.57 -49.7,54.34 -65.24,58.49zm-1493.66 -207.69c0,-56.44 17.75,-119.32 49.82,-157.87 16.15,-19.44 16.3,-23.32 47.4,-23.32 8.27,35.53 21.66,47.3 -31.47,118.79 -17.78,23.9 -39.13,48.31 -65.75,62.4zm-75.13 48.62c-25.17,2.08 -42.63,15.55 -70.89,17.48 -16.14,1.12 -25.78,0.36 -41.69,2.49 -22.94,3.09 -23.32,-2.6 -33.25,10.95 31.51,15.12 86.98,7.46 118.51,-0.8 12.12,-3.18 24.14,-7.67 40.58,-8.04 5.98,8.94 11.7,17.6 17.68,26.51 -62.38,0 -107.91,20.9 -149.61,58.1 -1.53,1.39 -4.73,4.29 -6.91,6.35 -22.79,21.52 -46.04,49.88 -59.35,77.64 -40.97,85.46 -19.73,190.07 33.98,256.34 75.04,92.58 208.16,109.43 291.39,24.84 45.69,-46.45 53.83,-105.33 80.52,-136.02 0,43.97 -1.11,137 57.45,137 66.02,0 28.43,-100.7 46.91,-174.04 10.91,-43.31 29.69,-79.43 53.77,-114.17 9.27,-13.38 14.91,-21.6 31.89,-25.56l0.13 88.52c-1.87,71.96 -28.27,195.88 64.93,213.59 25.68,4.89 53.31,-5.66 67.69,-23.51 9.54,-11.87 24.67,-50.8 26.34,-70.9l8.84 0c8.95,38.42 54.35,79.55 101.64,79.55 54.55,0 76.8,-7.67 113.88,-45.2 19.28,-19.53 37.67,-62.12 54.05,-74.12 0.68,31.03 15.61,58.48 26.36,79.7 20.33,40.09 73.03,48.13 113.01,28.75 16.58,-8.05 19.08,-14.47 29.97,-27.49l39.84 -57.38c5.59,-8.48 1.43,-3.5 7.35,-10.31 0,101.58 116.91,146.81 166.98,60.91 9.74,-16.69 0.04,-10.77 14.21,-21.15 23.34,100.18 143.48,123.99 183.76,24.68l15.1 -33.52c5.76,21.57 27.26,44.7 43.01,58.64 57.51,50.86 133.13,34.35 178.03,-18.78l19.41 -24.77c5.09,-7.4 7.75,-11.6 12.24,-18.71l12.46 -18.47c4.33,52.1 54.74,110.49 110.47,110.49 40.85,0 68.26,-10.63 96.19,-36.41 44.69,-41.24 63.79,-88.76 88.69,-141.09 10.47,-22.02 14.58,-10.34 20.6,-36.86 3.79,-16.68 2.22,-37.01 2.22,-55.21 32.71,-7.62 33.91,-22.11 70.71,-22.11 11.99,51.46 -4.42,102.22 -4.42,154.68 0,92.92 67.86,171.91 140.54,105.18l58.32 -83.1c0,38.44 2.1,128.17 53.03,128.17 91.4,0 -7.14,-131.84 104.12,-289.19 8.92,-12.59 16.57,-20.78 32.87,-24.58l0.67 35.98c-0.95,16.23 0.19,32.21 -0.64,48 -3.75,70.88 -25.17,199.36 61.36,217.37 25.83,5.37 52.8,-2.56 68.72,-20.99 11.56,-13.37 24.44,-48.72 28.99,-68.24 0.61,0.89 1.36,1.31 1.59,2.82 0.23,1.53 1.26,2.23 1.58,2.86 17.36,34.09 34.03,69.45 80.79,69.45 74.96,0 85.3,-57.42 123.73,-101.65 5.75,24.7 12.18,49.06 25.66,67.15 22.28,29.9 77.03,46.56 110.28,24.6 26.31,-17.38 35.4,-42.55 49.36,-69.96l4.73 -8.52c5.79,24.88 24.3,48.84 42.44,63.61 13.19,10.75 28.19,18.87 45.94,20.36l-4.42 57.44c0,16.05 5.24,15.5 8.84,30.94 55.62,0 20.34,-21.27 61.87,-30.94 16.12,30.48 15.94,97.19 -22.1,106.07 -5.87,-25.19 -12.51,-27.43 -35.35,-22.11 1.44,64.96 84.59,58.62 111.56,18.76 39.41,-58.26 11.83,-138.08 -27.6,-138.08l-39.77 4.42 0 -22.09c36.61,-3.05 59.43,-23.75 79.77,-43.97l52.81 -70.93c13.72,58.92 33.42,114.9 101.63,114.9 70.58,0 79.28,-65.08 114.9,-106.05 14.47,62.08 37.72,106.05 106.06,106.05 11.7,0 29.81,-9.19 38.09,-14.95 11.88,-8.27 16.52,-18.41 23.78,-29.24 13.9,10.19 58.26,95.55 150.5,48.86 42.84,-21.69 52.78,-82.77 52.78,-128.4 26.25,-13.9 76.28,-41.35 85.96,-69.84 12.12,-35.64 -26.03,-5.69 -34.03,2.44 -11.5,11.7 -30.4,28.06 -47.51,32.04 0,-109.12 -72.98,-216.65 -166,-130.65 -12.92,11.95 -26.98,36.57 -31.09,57.29 -2.91,14.63 -1.12,25.09 -4.24,39.98 -3.51,16.83 -8.33,23.45 -10.19,38.41 -6.03,48.56 -6.07,67.37 -33.8,103.2 -10.21,13.18 -12.1,15.05 -33.09,15.5 -5.48,-65.81 -7.6,-101.2 0,-167.92 3.09,-27.13 17.31,-78.38 -6.16,-99.88 -34.08,-31.26 -86.64,-27.86 -86.64,29.17l-8.84 0c-13.82,-51.77 -116.25,-67.89 -173.71,3.05 -33.95,41.91 -34.37,91.62 -64.01,139.28 -64.43,103.63 -164.42,148.13 -164.42,3.5 0,-54.15 24.29,-160.13 53.03,-181.18 24.79,6.62 29.84,40.81 31.02,66.21 1.39,30.13 -6.41,74.9 4.33,97.29 34.28,-7.98 22.1,-51.32 22.1,-101.64 0,-27.55 -7.87,-54.96 -22.01,-75.21 -0.54,-0.76 -1.29,-1.83 -1.86,-2.56 -36.42,-46.37 -141.92,-15.83 -173.97,118.57 -4.59,19.28 -3.9,34.16 -7.92,53.95 -6.69,32.99 -21.51,61.61 -39.83,88.32 -9.79,14.27 -16.83,27.36 -37.24,29.05 -22.82,-43.12 -4.33,-175.97 2.8,-223.01 10.01,-65.92 -100.02,-96.07 -100.02,-15.62l-8.84 0c-16.56,-62 -172.45,-79.43 -208.78,78.48 -3.89,16.93 -39.61,190.77 -69.62,173.41 -15.37,-8.89 -10.23,-46.24 -7.63,-65.07 4.52,-32.79 3.21,-79.06 3.21,-116.11 0,-60.17 -26.24,-110.47 -83.96,-110.47 -28.7,0 -57.12,41.68 -73.57,63.43 -6.55,8.64 -1.93,2.61 -5.98,7.26 -3.77,-45.29 -7.08,-92.95 -57.56,-80.01 -75.18,19.28 -37.47,110.76 -60.09,156.8 -17.46,35.49 -46.93,125.44 -94.47,126.49 0,-121.32 36.65,-197.24 -14.18,-250.95 -52,-54.96 -93.87,-10.34 -153.74,-5.35 -4.16,-49.97 -46.93,-96.55 -92.5,-61.57 -11.24,8.62 -16.43,11.99 -17.98,30.63 -86.64,-58.01 -169.18,42.42 -194,119.78 -16.39,51.11 -16.53,87.74 -52.71,132.89 -21.88,27.29 -79.59,84.68 -107.95,35.71 -17.04,-29.38 -19.15,-182.02 12.42,-210.8 27.01,-24.62 52.32,-39.24 86.14,-72.94 23.81,-23.74 50.04,-60.63 65.39,-93.69 21.71,-46.75 31.62,-91.47 31.62,-145.17 0,-97.6 -96.62,-83.42 -160.21,-23.2l-35.42 35.28c-11.73,13.21 -20.4,25.88 -30.46,40.25 -15.53,22.21 -33.83,66.71 -42.97,94.03 -10.77,32.2 -28.57,75.49 -31.44,109.96 -27.04,-31.1 -33.37,-35.35 -79.55,-35.35 -87.1,0 -118.73,118.71 -130.6,187.56 -6.38,37 -34.26,113.79 -77.09,117.35 -27.19,-56.65 4.41,-184.06 4.41,-238.63 0,-27.81 -28.58,-43.5 -54.79,-47.17 -33.6,-4.67 -46.15,20.35 -46.85,51.6 -35.43,-40.76 -28.38,-48.62 -97.22,-48.62 -36.15,0 -68.53,26.26 -84.7,47.89 -42.52,56.81 -13.66,77.16 -90.1,179.45 -48.01,64.25 -134.54,87.95 -134.54,-24.06 0,-40.27 4.65,-85.53 15.04,-121.95 8.1,-28.37 14.95,-65.15 42.41,-72.49 46.28,33.91 11.86,132.96 26.52,163.5 38.92,-3.22 26.51,-60.59 26.51,-88.38 0,-46.02 -18.36,-110.46 -61.87,-110.46 -82.76,0 -120.99,66.78 -138.02,140.37 -1.81,7.79 -2.33,15.05 -4.6,26.33l-22.54 79.12c-3.39,10.18 -28.53,87.42 -46.96,76.76 -14.83,-8.58 -10.2,-42.1 -7.63,-60.65 5.16,-37.2 3.22,-88.69 3.22,-129.36 0,-55.36 -30.11,-101.64 -83.97,-101.64 -37.85,0 -58.96,55.62 -79.54,70.69 0,-110.85 -72.17,-91.48 -93.09,-53.3 -18.03,32.91 -13.78,67.69 -17.37,101.95 -1.69,16.15 -7.13,19.17 -14.79,33.81 -57.6,110.17 -71.19,200.38 -206.19,200.38 -82.99,0 -88.38,-96.7 -88.38,-159.1 0,-74.33 35.22,-165.36 82.76,-213.31 60.37,-60.91 151.45,3.19 151.45,-34.16 0,-13.48 -98.89,-64.28 -41.82,-108.12 9.98,-7.66 12.41,-10.38 20.85,-18.9 46.03,-46.54 87.26,-89.56 87.26,-164.64 0,-84.31 -199.32,-67.21 -222.5,122.54 -3.34,27.3 8.62,63.07 14.8,89.59z"/>
   <path class="fil0" d="M5193.15 5687.82c-34.86,-25.54 19.5,-108.88 39.78,-123.73 0,23.43 -3.98,52.36 -8.63,70.92 -2.94,11.7 -5.41,18.53 -10.31,29.47 -6.3,14.05 -5.82,19.34 -20.84,23.34zm-976.63 -106.05c-15.04,-4.03 -15.55,-1.29 -11.3,-19.11 3.04,-12.78 9.48,-17.9 15.72,-25.08 0,17.09 0.79,32.54 -4.42,44.19zm154.67 -17.68c-10.31,-21.5 -8.84,-28.52 -8.84,-53.03 40.5,0 23.93,1.25 35.36,-4.41 -1.91,22.91 -11.32,47.26 -26.52,57.44zm1263.87 -4.43c-12.36,-22 -0.73,-96.18 5.25,-118.49 5.49,-20.44 8.77,-38.1 25.69,-49.43 39.58,26.51 7.04,113.22 -9.6,145.08 -6.79,12.99 -6.37,18.85 -21.34,22.84zm-901.5 -17.67l-13.26 0c-0.77,-34.97 -5.25,-11.21 0.69,-70.02 2.04,-20.1 8.03,-47.49 12.57,-66.97 80.89,1.8 0.05,136.82 0,136.99zm1175.49 4.42c-11.43,-47.78 3.8,-100.8 13.26,-141.41 64.6,1.43 26.55,120.34 -13.26,141.41zm-503.78 -4.42c-9.18,-11 -2.36,-136.99 22.09,-136.99 30.12,0 26.37,48.42 21.02,74.02 -3,14.43 -14.78,42.62 -25.72,53.84 -11.74,12.05 4.31,6.75 -17.39,9.13zm-1467.15 17.67c-27.78,0 -22.1,-54.64 -22.1,-79.54 0,-22.28 53.03,-17.58 57.45,-70.71 14.64,3.93 8.07,4.4 24.54,10.82 15.28,5.96 19.65,-0.29 19.65,20.12 0,20.88 -33.71,80.2 -48.4,97.43 -7.35,8.63 -19.91,21.88 -31.14,21.88zm309.34 -119.31l4.42 8.84 -4.42 -8.84zm92.8 -4.42c0,-58.22 57.45,-63.64 57.45,53.03l-30.94 0c-1.13,-51.05 -26.51,-41.2 -26.51,-53.03zm-92.8 4.42l-11.48 -19.44c-2.88,-8.08 -5.51,-20.94 -6.2,-29.17 21.89,5.84 17.68,21.78 17.68,48.61zm-327.02 8.84c2.23,-26.84 13.46,-54.59 30.94,-66.29 8.59,16.24 10.34,21.86 0.13,39.67 -8.13,14.19 -16.91,19.14 -31.07,26.62zm88.38 -66.29l1.32 1.32c-0.09,-0.09 -1.75,-0.88 -1.32,-1.32zm936.86 26.51c0,-22.91 12.4,-190.02 57.45,-190.02 39.65,0 20.74,91.3 -5.64,135.77 -12.19,20.57 -31.88,43.71 -51.81,54.25zm817.54 -8.82c1.26,-15.18 7.58,-37.4 11.5,-54.79 7.71,-34.15 32.43,-121.32 68.05,-130.83 35.16,66.45 -39.95,159.1 -79.55,185.62zm-1511.34 48.6l12.72 -9.48c1.59,-94.41 -81.71,-88.54 -83.87,-25.92 -2.12,61.63 25.52,31.59 -18.96,108.8 -7.85,13.62 -10.34,22.26 -29.21,23.82 0,-53.97 37.11,-149.82 -37.05,-161.98 -20.36,-3.34 -38.99,9.97 -60.17,11.73 -3.6,-43.2 -42.3,-57.91 -66.29,-22.09 -33.33,-7.77 -45.32,-8.02 -69.66,9.88 -135.41,99.49 21.91,325.03 121.18,107.93l16.6 -32.01c5.05,-13.1 1.9,-24.32 9.02,-35.17 5.99,-9.16 20.36,-14.21 33.34,-15.29 7.57,32.52 -3.08,53.78 -3.2,84.03 -0.16,36.58 17.28,95.87 63.06,82.39 32.81,-9.64 46.37,-49.2 62.67,-74.82 5.37,-8.45 1.7,-3.11 5.63,-7.62 0.99,11.92 2.07,12.01 4.41,22.08 -11.73,17.53 -32.37,29.77 -32.97,53.64 -0.56,22.66 17.75,39.37 50.16,34.69 23.85,-3.44 36.59,-24.6 44.76,-44.07 12.75,-30.35 7.03,-40.24 -0.08,-70.77 8.79,-5.89 12.25,-8.03 22.1,-13.25 -13.4,57.49 6.54,111.88 70.61,106.32 54.52,-4.73 35.55,-56.23 55.91,-81.43 0.46,-0.59 26.47,-19.36 28.15,-20.48 0,119.85 23.45,110.59 61.86,101.65 0,-38.79 0.92,-75.83 8.62,-106.3 6.64,-26.28 20.4,-57.77 44.42,-70.47 0,45.88 -7.15,117.01 3.54,146.7 6.38,17.74 23.74,32.05 49.33,30.48 25.11,-1.57 37.89,-20.09 39.93,-44.6l8.84 0c17.11,64.09 78.29,35.04 104.18,-6.31 2.92,-4.67 2.35,-4.05 5.11,-8.15 4.68,-6.93 1.53,-2.96 5.6,-7.65 1.66,19.99 4.91,24.87 16.28,36.76 47.22,49.3 66.67,8.18 94.2,-23.5 10.66,45.75 69.02,119.03 140.87,-9.39 0.45,-0.81 1.21,-2.06 1.63,-2.79l3.33 -5.49c7.83,33.58 35.86,69.79 74.03,61.24 7.72,-1.73 3.59,-0.31 9.69,-3.91 36.46,-21.43 29.1,-73.17 48.37,-106.43 17.28,-29.8 20.39,-74.63 71.19,-74.63 3.2,38.42 -13.68,58.54 -35.52,88.2 -10.99,14.94 -12.57,8.14 -13.09,31.12l39.78 2.2c0,37.37 -28.02,49.81 -54,94.06 -8.7,14.81 -16.76,35.83 -17.21,58.49 -1.85,92.36 94.45,38.8 118.09,-19.49 11.45,-28.22 7.72,-29.92 11.98,-63.45 3.96,-31.12 -3.31,-37.04 -5.84,-67.4 17.55,-9.28 32.52,-20.16 48.62,-30.94 0,40.92 17.44,85.6 49.69,92.14 51.44,10.43 53.11,-34.97 82.88,-56.79 0.69,30.84 20.83,52.04 45.4,56.74 35.78,6.87 43.14,-18.91 60.66,-39.06 6.39,27.43 27.3,50.74 58.05,52.85 18.33,1.25 31.59,-7.41 39.42,-17.25 10.74,-13.51 9.96,-26.89 21.85,-35.6 7.53,32.34 48.99,53.67 82.91,47.91 42.9,-7.3 44.14,-42.66 71.75,-61.16 1.35,16.17 9.77,28.61 18.71,38.74 9.54,10.79 21.01,17.17 42.61,14.23 9.04,-1.23 12.39,-2.76 19.5,-7.5 13.61,-9.04 20.61,-19.75 29.64,-32.23 0.87,-1.2 3.45,-5.15 5.43,-7.84 4.09,-5.56 4.23,-5.66 7.85,-9.83 5.08,61.11 77.77,96.02 115.5,-8.24 6.16,-17.04 17.35,-43.47 8.24,-62.45 -23.86,6.37 -20.53,33 -28.02,55.93 -6.87,21.05 -18.12,44.74 -38.27,50.13 -9.98,-42.85 -1.92,-82.33 3.47,-120.73 6.97,-49.77 -51.11,-67.22 -60.92,-25.11 -11.96,-8.02 -15.54,-14.87 -33.52,-19.74 -83.92,-22.73 -94.51,88.59 -103.39,108.22 -9.35,20.65 -25.74,47.73 -46.03,60.46 -21.32,13.4 -24.44,1.55 -38.01,-7.53 0,-24.23 -2.95,-79.81 1.51,-100.12 5.26,-23.87 38.89,-36.82 74.67,-80.01 26.78,-32.32 44.07,-67.3 43.58,-116.03 -0.66,-65.47 -44.32,-57.35 -83.16,-34.01 -32.1,19.28 -53.77,55.23 -68.84,90.25 -9.18,21.33 -23.12,55.62 -25.21,80.84 -10.19,-6.82 -12.41,-12.81 -28.26,-16.33 -78.35,-17.32 -89.67,91.72 -100.24,126.46 -6.26,20.58 -18.01,47.65 -39.43,53.38 -9.79,-117.58 35.88,-167.94 -48.61,-167.94 -4.82,9.11 -6.13,10.48 -8.84,22.1l-8.84 0c-3.72,-13.96 -6.83,-14.32 -21.1,-18.79 -19.33,-6.03 -47.83,-0.72 -65.1,12.13l-23.41 29.62c-8.56,16.58 -11.78,24.6 -27.26,34.6 -13.71,8.87 -33.69,26.8 -48.73,30.83 -6.79,-9.77 -0.73,-5.5 -13.26,-8.85 2.48,-29.88 38.52,-59.5 16.28,-95.8 -22.76,-37.14 -75.29,-15.61 -99.95,7.71 -21.41,20.26 -29.72,37.35 -31.39,70.25 -1.86,36.84 -16.37,68.57 -39.61,84.14 -11.8,-24.59 -12.67,-77 -6.85,-113.17 3.63,-22.61 4.33,-35.2 -10.27,-46.5 -9.74,-7.53 -39.63,-15.59 -49.63,0.08 -6.75,10.61 -3.37,40.12 -3.7,58.19 -0.59,31.93 -21.99,64.78 -38.1,90.07 -11.84,18.58 -12.77,24.58 -41.7,24.58 -10.33,-21.52 -19.93,-77.66 -12.38,-114.03 5.32,-25.68 81,-72.4 101.9,-158.83 30.1,-124.4 -113.62,-145.71 -147.03,51.84 -11.76,69.58 1.14,192.13 -57.39,207.77 -0.79,-35.58 -5.42,-32.57 -0.75,-75.88 3.27,-30.25 19.75,-93.33 -30.3,-92.28 -17.28,0.37 -22.74,8.63 -26.4,22.32 -17.46,-11.7 -29.34,-28.85 -64.57,-20.62 -83.43,19.46 -48.49,138.56 -103.36,175.28 0,-41.54 7.74,-112.47 -5.88,-144.34 -27.75,-64.95 -74.44,-3.96 -91.33,7.35 0,-28.43 -10.43,-55.92 -42.18,-38.14 -23.15,12.98 -24.11,39.21 -24.11,73.49 -22.28,5.96 -8.66,11.73 -30.94,17.69 0,-110.68 -96.6,-116.43 -116.45,-45.75 -12.81,45.58 5.27,13.67 -42.64,45.75 -3.19,-13.72 -5.64,-12.81 -8.83,-26.52z"/>
   <path class="fil0" d="M7804.86 1834.33c3.61,13.53 10.81,20.68 17.68,30.94l-44.19 0c8.85,-13.22 13.04,-21.91 26.51,-30.94zm119.32 154.68c-19.49,-29.1 -37.97,-59.28 -57.45,-88.38 114.54,0 247.64,-19.52 308.73,-71.32 0.98,-0.83 3.75,-3.28 4.68,-4.15l4.41 -4.45c0.62,-0.65 1.5,-1.61 2.12,-2.29 55.51,-59.52 18.71,-131.85 -19.32,-187.49 -13.26,-19.39 -3.43,-14.89 -25.36,-23.24 -11.97,-4.56 -21.48,-10.73 -36.63,-11.99 0.61,27.28 20.57,53.99 26.52,79.56 -54.41,0 -146.59,24.27 -170.65,54.73 -21.85,27.64 -18.04,40.35 -67.9,42.56 -43.1,1.94 -69.92,-4.49 -110.56,-4.49 13.11,-17.92 80.59,-39.38 128.26,-101.53 41.56,-54.22 47.27,-128.62 21.99,-181.3 -42.1,0 -164.5,17.67 -216.54,17.67l-154.67 225.37c28.17,14.92 55.43,33.52 83.96,48.62l0 30.93c25.2,13.33 49.77,24.9 76.6,38.3 38.9,19.45 41.8,14.91 64.84,50.06 16.07,24.54 28.8,43.94 52.19,62.71 16.16,12.97 56.56,30.12 84.78,30.12z"/>
   <path class="fil0" d="M5095.93 7411.28c5.01,21.49 17.09,31.54 22.1,53.04 -11.05,-5.3 -66.69,-25.45 -79.55,-26.52 8.1,-11.06 44.78,-25.46 57.45,-26.52zm88.39 57.45c-11.63,-15.87 -61.32,-40.86 -80.5,-56.49 -14.51,-11.81 -15.31,-25.12 -21.71,-44.57 -5.42,-16.46 -12.91,-35.56 -17.11,-53.61 55.82,0 109.57,-11.32 141.63,-35.13 24.97,-18.54 54.27,-80.05 70.49,-110.69 -48.37,0 -104.85,13.03 -157.4,2.67 -35.86,-7.09 -31.62,-12.62 -60.46,9.25 -12.73,9.65 -37.11,28.36 -51.71,32.27 -4.97,-18.64 -19.14,-27.05 -17.87,-52.93 1.98,-40.16 46.6,-26.88 -27.33,-87.48 -13.32,-10.92 -25.42,-23.39 -43.18,-27.53 -18.26,12.23 -41.02,58.17 -46.89,85.7 -9.36,43.89 10.01,83.81 25.6,107.95 105.25,162.9 105.49,97.66 105.25,296.88 -0.09,76.08 -0.48,77.22 29.82,107.18 22.98,22.7 42.44,46.12 67.4,65.17 25.78,19.67 43.76,48.24 70.71,66.28 30.49,-22.33 65.53,-101.78 43.77,-163.09 -9.29,-26.17 -25.64,-50.56 -41.09,-73.79 -9.09,-13.67 -15.2,-20.64 -23.95,-33.51 -8.35,-12.3 -15.14,-22.91 -22.92,-34.53l57.45 0z"/>
   <path class="fil0" d="M4477.25 7468.73l57.45 0c-60.88,115.05 -123.6,103.75 -67.99,262.44 5.97,17.06 10.94,25.2 14.96,42.48 12.73,-3.4 110.8,-95.24 131.47,-115.99 16.8,-16.87 24.07,-27.45 45.3,-38.68l4.95 -180.65c16.05,-153.82 193.64,-213.08 105.37,-362.75 -6.32,-10.73 -13.85,-17.33 -17.52,-31.09 -25.99,0.59 -54.43,33.34 -62.11,57.21 -7.16,22.23 -4.18,83.59 -4.18,115.14 -28.78,-15.23 -85.91,-45.61 -123.86,-48.49 -15.11,-1.14 -162.37,8.97 -165.8,10.8 -15.04,8.06 -3.31,6.09 -2.95,7.6 3.45,14.79 46.88,69.3 68.41,86.36 22.51,17.84 105.87,38.46 135.82,40.95 -2.6,31.2 -23.92,61.6 -26.52,92.81 9.35,4.48 11.38,4.06 24.14,6.8 22.47,4.8 13.94,-3.5 24.47,10.87 -15.14,3.54 -23.62,11.14 -38.25,19.19 -15.36,8.47 -23.38,16.42 -41.29,20.59l0 -26.52 -61.87 30.93z"/>
   <path class="fil0" d="M1949.51 1379.17c11.64,6.15 20.69,8.56 33.87,14.75 95.64,44.84 129.7,40.94 222.4,16.15 46.74,-12.51 127.05,-20.39 176.8,-8.81 -13.39,-57.49 -221.62,-330.01 -417.24,-54.87 -8.23,11.59 -14.56,17.41 -15.83,32.78z"/>
   <path class="fil0" d="M2135.11 6607c120.66,0 235.3,-87.99 243.05,-181.17 -23.91,1.97 -58.39,30.93 -106.06,30.93 -30.02,0 -67.28,-63.8 -131.59,-47.95 -192.1,47.34 -204.61,19.33 -177.8,78.9 28.95,64.28 91.57,119.29 172.4,119.29z"/>
   <path class="fil0" d="M7309.92 6452.33c-2.43,-10.4 -4.12,-13.05 -4.42,-26.5 -18.26,1.52 -18.42,5.57 -26.51,17.66 16.32,7.83 20.88,1.79 29.38,19.23 7.86,16.15 4.6,20.87 15.5,37.54 14.71,22.5 27.39,36.34 49.11,52.51 176.25,131.23 331.01,-7.86 339.08,-104.86 -21.72,-5.05 -25.58,-6.91 -52.67,-9.2 -72.06,-6.07 -107.16,-45.63 -137.35,-52.66 -103.68,69.42 -41.15,66.28 -212.12,66.28z"/>
   <path class="fil0" d="M7305.5 1379.17c66.73,32.01 9.96,-22.42 148.72,23.62 63.86,21.2 45.44,40.07 84.51,28.86 30.36,-8.71 56.82,-19.97 91.16,-28.81 39.6,-10.18 28.91,10.53 86.59,-28.1 -37.92,-56.63 -106.04,-150.25 -185.6,-150.25l-35.36 0c-69.32,0 -176.89,98.31 -190.02,154.68z"/>
   <path class="fil0" d="M3752.51 5396.16c-16.51,-70.88 38.31,-212.12 83.97,-212.12 43.85,0 -22.33,197.76 -83.97,212.12zm-172.34 -119.32c0,30.69 1.96,56.61 39.77,57.45 -3.18,-38.28 -17.68,10.49 -17.68,-61.87 0,-19.56 11.19,-46.47 19.38,-60.17 13.66,-22.83 19.15,-30.58 46.91,-37.05 19.54,29.18 16.17,94.38 13.02,132.34 -4.15,50.21 -9.68,202.29 3.49,257.71 5.71,24.02 13.39,37.64 36.52,43.04 11.33,-16.94 14.65,-24.3 17.15,-49.14 2.37,-23.66 1.12,-47.22 3.73,-66.99 13.13,-99.44 -13.13,-49.87 61.28,-75.71 98.99,-34.38 140.98,-258.93 37.15,-258.93 -55.63,0 -77.23,87.02 -97.21,101.65 0,-45.36 -33.23,-110.47 -75.13,-110.47 -46.36,0 -88.38,77.84 -88.38,128.14z"/>
   <path class="fil0" d="M1450.14 3942.26c51.77,0 104.31,12.34 145.84,13.26 7.26,-15.14 17.67,-64.82 17.67,-88.38 0,-33.77 -24.35,-57.67 -41.05,-78.37 -15.16,-18.8 -12.24,-16.86 -34.12,-15.22 -150.44,11.25 -106.23,91.91 -88.34,168.71z"/>
   <path class="fil0" d="M7950.69 3849.46c0,25.63 11.41,70.37 20.62,85.46 16.14,26.45 169.41,45.49 169.41,-63.36 0,-59.3 -87.42,-92.81 -150.25,-92.81 -9.3,13.89 -39.78,52.91 -39.78,70.71z"/>
   <path class="fil0" d="M6492.38 4388.59c0,33.6 23.59,44.19 53.03,44.19 20.75,0 26.04,-36.37 26.51,-57.44 29.85,7.97 50.11,79.37 99.21,-2.44 21.47,-35.78 24.51,-39.65 11.27,-59.43 -35.82,8.34 -25.28,41.54 -53.03,61.87 -25.99,-17.4 -35.06,-61.87 -75.12,-61.87 -32.28,0 -61.87,43.41 -61.87,75.12z"/>
   <path class="fil1" d="M5042.9 5347.55l11.17 15.34c8.02,9.24 5.85,6.75 28.61,6.75 23.62,-35.27 13.15,-33.38 0,-53.03l-26.52 0c-8.71,13 -9.06,12.96 -13.26,30.94z"/>
   <path class="fil1" d="M2046.73 6054.62c11.57,-7.77 9.13,-2.24 13.25,-17.69 -16.37,-3.8 -12.35,-7.28 -30.93,-8.84 4.05,17.38 4.86,17.94 17.68,26.53z"/>
  </g>
 </g>
</svg>
