<?xml version="1.0" encoding="UTF-8"?>
<!DOCTYPE svg PUBLIC "-//W3C//DTD SVG 1.1//EN" "http://www.w3.org/Graphics/SVG/1.1/DTD/svg11.dtd">
<!-- Creator: CorelDRAW 2018 (64 Bit Versão de avaliação) -->
<svg xmlns="http://www.w3.org/2000/svg" xml:space="preserve" width="150mm" height="150mm" version="1.1" style="shape-rendering:geometricPrecision; text-rendering:geometricPrecision; image-rendering:optimizeQuality; fill-rule:evenodd; clip-rule:evenodd"
viewBox="0 0 15000 15000"
 xmlns:xlink="http://www.w3.org/1999/xlink">
 <defs>
  <style type="text/css">
   <![CDATA[
    .fil0 {fill:#0FC224}
   ]]>
  </style>
 </defs>
 <g id="Camada_x0020_1">
  <metadata id="CorelCorpID_0Corel-Layer"/>
  <path class="fil0" d="M7650.31 0c3842.12,0 6956.78,3164.08 6956.78,7067.19 0,3903.1 -3114.66,7067.18 -6956.78,7067.18 -1382.73,0 -2671.29,-409.83 -3754.24,-1116.46l-3312.7 1228.73 1134.04 -3487.66c-649.25,-1074.45 -1023.88,-2338.63 -1023.88,-3691.79 0,-3903.11 3114.66,-7067.19 6956.78,-7067.19zm50.47 1670.23c2881.92,0 5218.18,2401.34 5218.18,5363.56 0,2962.18 -2336.26,5363.52 -5218.18,5363.52 -1148.54,0 -2210.21,-381.64 -3072.01,-1027.97l-1814.72 617.4 647.63 -1824.99c-616.06,-880.52 -979.1,-1960.6 -979.1,-3127.96 0,-2962.22 2336.26,-5363.56 5218.2,-5363.56zm3209.95 7984.06c-290.96,339.47 -1163.9,1600.35 -4364.59,-484.95 -920.41,-599.64 -1528.02,-1263.47 -1897.78,-1911.88 -916.08,-1606.44 -372.32,-3118.33 491.42,-3325.62 1212.37,-290.97 2170.27,1784.83 921.41,2521.76 -290.69,171.53 1888.68,3044.6 2739.79,2109.33 1470.47,-1615.74 2571.21,552.99 2109.75,1091.36z"/>
 </g>
</svg>
